<svg width="1440" height="275" viewBox="0 0 1440 275" fill="none" xmlns="http://www.w3.org/2000/svg">
<path d="M1422.8 152H1435.6L1437.9 165L1439.7 175.3H1426.9L1425.1 165L1422.8 152Z" fill="#F2F3F5"/>
<path d="M1171 0H1190.5L1193.9 19.7L1196.7 35.4H1177.3L1174.5 19.7L1171 0Z" fill="#F2F3F5"/>
<path d="M1429.3 19H1419.5L1417.8 28.8L1416.4 36.7H1426.1L1427.5 28.8L1429.3 19Z" fill="#5826E8"/>
<path d="M1004.7 38H985.2L981.8 57.7L979 73.4H998.4L1001.2 57.7L1004.7 38Z" fill="#5826E8"/>
<path d="M1248.6 97.5H1231.8L1228.9 114.4L1226.5 128H1243.2L1245.6 114.4L1248.6 97.5Z" fill="#5826E8"/>
<path d="M795.8 195H808.6L810.9 208L812.7 218.3H799.9L798.1 208L795.8 195Z" fill="#F2F3F5"/>
<path d="M574 160.6H593.5L596.9 180.3L599.7 196H580.3L577.5 180.3L574 160.6Z" fill="#F2F3F5"/>
<path d="M752.7 133H742.9L741.2 142.8L739.8 150.7H749.5L750.9 142.8L752.7 133Z" fill="#5826E8"/>
<path d="M377.7 152.9H358.2L354.8 172.6L352 188.3H371.4L374.2 172.6L377.7 152.9Z" fill="#5826E8"/>
<path d="M669.7 220.5H652.9L650 237.4L647.6 251H664.3L666.7 237.4L669.7 220.5Z" fill="#5826E8"/>
<path d="M503.8 60H516.6L518.9 73L520.7 83.3H507.9L506.1 73L503.8 60Z" fill="#F2F3F5"/>
<path d="M260.8 195H273.6L275.9 208L277.7 218.3H264.9L263.1 208L260.8 195Z" fill="#F2F3F5"/>
<path d="M1115.8 251H1128.6L1130.9 264L1132.7 274.3H1119.9L1118.1 264L1115.8 251Z" fill="#F2F3F5"/>
<path d="M209.7 9.6001H229.2L232.6 29.3001L235.4 45.0001H216L213.2 29.3001L209.7 9.6001Z" fill="#F2F3F5"/>
<path d="M450.3 7H440.5L438.8 16.8L437.4 24.7H447.1L448.5 16.8L450.3 7Z" fill="#5826E8"/>
<path d="M25.7 107H6.19995L2.79996 126.7L-6.10352e-05 142.4H19.4L22.2 126.7L25.7 107Z" fill="#5826E8"/>
<path d="M269.6 83H252.8L249.9 99.9L247.5 113.5H264.2L266.6 99.9L269.6 83Z" fill="#5826E8"/>
</svg>
