<svg width="1206" height="324" viewBox="0 0 1206 324" fill="none" xmlns="http://www.w3.org/2000/svg">
<g clip-path="url(#clip0)">
<path d="M372.5 203.3L442.8 207.2C451.4 207.7 458.7 200.8 458.7 192.2C458.7 183.7 451.6 176.8 443.1 177.1L372.7 179.7C366.4 179.9 361.3 185.2 361.3 191.5C361.3 197.8 366.2 203 372.5 203.3Z" fill="url(#paint0_linear)" stroke="#333333" stroke-width="2" stroke-miterlimit="10"/>
<path d="M353.9 198.3L311.7 254.7C306.5 261.6 296.6 262.8 290 257.2C283.5 251.7 282.8 241.9 288.5 235.6L335.7 183.4C340 178.7 347.2 178.2 352.1 182.3C356.8 186.2 357.7 193.2 353.9 198.3Z" fill="url(#paint1_linear)" stroke="#333333" stroke-width="2" stroke-miterlimit="10"/>
<path d="M360.9 267.5C366.3 267.5 370.7 266.8 374.2 265.9C379.7 264.4 383.2 262.1 385.2 260.6C393.4 254.4 397.5 244.3 398.2 233.1C399.1 217.7 393.1 200.4 381.8 188.8C381.7 188.7 381.7 188.7 381.6 188.6C370.5 177.4 351.2 177.4 340.1 188.6C340 188.7 340 188.7 339.9 188.8C328.6 200.4 322.7 217.7 323.5 233.1C324.1 244.2 328.3 254.4 336.5 260.6C338.5 262.1 342 264.3 347.5 265.9C351 266.8 355.4 267.5 360.9 267.5Z" fill="url(#paint2_radial)" stroke="#333333" stroke-width="2" stroke-miterlimit="10"/>
<path d="M347.5 265.8C351.1 266.8 355.5 267.5 360.9 267.4C366.3 267.4 370.7 266.7 374.2 265.8" stroke="#333333" stroke-width="2" stroke-miterlimit="10" stroke-linecap="round"/>
<path d="M355.5 267.2L319.1 282.3L299.2 238.5L327 228.5" fill="url(#paint3_radial)"/>
<path d="M355.5 267.2L319.1 282.3L299.2 238.5L327 228.5" stroke="#333333" stroke-width="2" stroke-miterlimit="10"/>
<path d="M325.6 267.3C325.8 271.6 325.1 275.4 323.4 278.2C322.3 280 320.9 281.4 319.1 282.3C319.1 282.3 319.1 282.3 319 282.3C311.5 285.9 300.7 279.2 294.9 267.2C289.1 255.2 290.5 242.6 297.9 238.9C298.1 238.8 298.2 238.8 298.4 238.7L299.2 238.4C301.2 237.8 303.3 237.8 305.6 238.4C308.4 239.1 311.2 240.8 313.9 243.1C317 245.8 319.9 249.6 322 254.1C324.2 258.6 325.4 263.1 325.6 267.3Z" fill="url(#paint4_radial)" stroke="#333333" stroke-width="2" stroke-miterlimit="10"/>
<path d="M366.2 267.2L402.7 282.3L422.5 238.5L394.7 228.5" fill="url(#paint5_radial)"/>
<path d="M366.2 267.2L402.7 282.3L422.5 238.5L394.7 228.5" stroke="#333333" stroke-width="2" stroke-miterlimit="10"/>
<path d="M396.1 267.3C395.9 271.6 396.6 275.4 398.3 278.2C399.4 280 400.8 281.4 402.6 282.3C402.6 282.3 402.6 282.3 402.7 282.3C410.2 285.9 421 279.2 426.8 267.2C432.6 255.2 431.2 242.6 423.8 238.9C423.6 238.8 423.5 238.8 423.3 238.7L422.5 238.4C420.5 237.8 418.4 237.8 416.1 238.4C413.3 239.1 410.5 240.8 407.8 243.1C404.7 245.8 401.8 249.6 399.7 254.1C397.5 258.6 396.4 263.1 396.1 267.3Z" fill="url(#paint6_radial)" stroke="#333333" stroke-width="2" stroke-miterlimit="10"/>
<path d="M336.8 170.8C336.8 184.1 347.6 194.9 360.9 194.9C374.2 194.9 385 184.1 385 170.8H336.8Z" fill="#BF8CF3" stroke="#333333" stroke-width="2" stroke-miterlimit="10" stroke-linecap="round" stroke-linejoin="round"/>
<path d="M360.9 147.9C412.042 147.9 453.5 143.199 453.5 137.4C453.5 131.601 412.042 126.9 360.9 126.9C309.758 126.9 268.3 131.601 268.3 137.4C268.3 143.199 309.758 147.9 360.9 147.9Z" fill="white" stroke="#333333" stroke-width="2" stroke-miterlimit="10" stroke-linecap="round"/>
<path d="M360.9 188.1C393.098 188.1 419.2 161.998 419.2 129.8C419.2 97.6018 393.098 71.5 360.9 71.5C328.702 71.5 302.6 97.6018 302.6 129.8C302.6 161.998 328.702 188.1 360.9 188.1Z" stroke="#333333" stroke-width="2" stroke-miterlimit="10"/>
<path d="M360.9 188.1C393.098 188.1 419.2 161.998 419.2 129.8C419.2 97.6018 393.098 71.5 360.9 71.5C328.702 71.5 302.6 97.6018 302.6 129.8C302.6 161.998 328.702 188.1 360.9 188.1Z" fill="url(#paint7_radial)" stroke="#333333" stroke-width="2" stroke-miterlimit="10"/>
<path d="M414.5 114.9V176.7" stroke="#333333" stroke-width="2" stroke-miterlimit="10"/>
<path d="M414.5 186.1C419.691 186.1 423.9 181.892 423.9 176.7C423.9 171.509 419.691 167.3 414.5 167.3C409.309 167.3 405.1 171.509 405.1 176.7C405.1 181.892 409.309 186.1 414.5 186.1Z" fill="#BF8CF3" stroke="#333333" stroke-width="2" stroke-miterlimit="10" stroke-linecap="round" stroke-linejoin="round"/>
<path d="M371.9 153.4L378.4 147.8L384.9 153.4" stroke="#333333" stroke-width="3" stroke-miterlimit="10" stroke-linecap="round" stroke-linejoin="round"/>
<path d="M360.9 126.9C409.6 126.9 449.4 131.2 453.2 136.6C449.7 130.7 413.4 69.6001 413.3 69.5001C411.1 66.7001 388.5 64.6001 360.9 64.6001C333.3 64.6001 310.6 66.8001 308.5 69.5001C308.2 69.6001 272.8 129.8 268.7 136.5C273 131.1 312.6 126.9 360.9 126.9Z" fill="white" stroke="#333333" stroke-width="2" stroke-miterlimit="10" stroke-linecap="round" stroke-linejoin="round"/>
<path d="M362.9 144.7C366.6 144.7 369.6 141.7 369.6 138C369.6 134.3 366.6 131.3 362.9 131.3C359.2 131.3 356.2 134.3 356.2 138C356.2 141.7 359.2 144.7 362.9 144.7Z" stroke="#333333" stroke-width="4" stroke-miterlimit="10" stroke-linecap="round"/>
<path d="M394 144.7C397.7 144.7 400.7 141.7 400.7 138C400.7 134.3 397.7 131.3 394 131.3C390.3 131.3 387.3 134.3 387.3 138C387.3 141.7 390.3 144.7 394 144.7Z" stroke="#333333" stroke-width="4" stroke-miterlimit="10" stroke-linecap="round"/>
<path d="M383.955 196.81C386.298 194.467 385.855 190.225 382.965 187.335C380.075 184.445 375.833 184.002 373.49 186.345C371.147 188.688 371.59 192.93 374.48 195.82C377.37 198.71 381.612 199.153 383.955 196.81Z" fill="#BF8CF3" stroke="#333333" stroke-width="2" stroke-miterlimit="10" stroke-linecap="round" stroke-linejoin="round"/>
<path d="M369.46 195.806C372.35 192.916 372.793 188.674 370.45 186.331C368.107 183.988 363.864 184.431 360.975 187.321C358.085 190.211 357.642 194.453 359.985 196.796C362.328 199.139 366.57 198.696 369.46 195.806Z" fill="#BF8CF3" stroke="#333333" stroke-width="2" stroke-miterlimit="10" stroke-linecap="round" stroke-linejoin="round"/>
<path d="M573 205.8L619.4 258.8C625.1 265.3 635.1 265.7 641.3 259.6C647.4 253.6 647.3 243.8 641.1 237.9L590 189.5C585.4 185.1 578.1 185.2 573.6 189.6C569.1 194 568.8 201.1 573 205.8Z" fill="#84B6FF" stroke="#333333" stroke-width="2" stroke-miterlimit="10" stroke-linecap="round"/>
<path d="M630.7 264C639.04 264 645.8 257.24 645.8 248.9C645.8 240.561 639.04 233.8 630.7 233.8C622.361 233.8 615.6 240.561 615.6 248.9C615.6 257.24 622.361 264 630.7 264Z" fill="white" stroke="#333333" stroke-width="2" stroke-miterlimit="10" stroke-linecap="round"/>
<path d="M553.6 215L483.3 218.9C474.7 219.4 467.4 212.5 467.4 203.9C467.4 195.4 474.5 188.5 483 188.8L553.4 191.4C559.7 191.6 564.8 196.9 564.8 203.2C564.7 209.4 559.8 214.6 553.6 215Z" fill="#84B6FF" stroke="#333333" stroke-width="2" stroke-miterlimit="10" stroke-linecap="round"/>
<path d="M564.7 275.7C570.1 275.7 574.5 275 578 274.1C583.5 272.6 587 270.3 589 268.8C597.2 262.6 601.3 252.5 602 241.3C602.9 225.9 596.9 208.6 585.6 197C585.5 196.9 585.5 196.9 585.4 196.8C574.3 185.6 555 185.6 543.9 196.8C543.8 196.9 543.8 196.9 543.7 197C532.4 208.6 526.5 225.9 527.3 241.3C527.9 252.4 532.1 262.6 540.3 268.8C542.3 270.3 545.8 272.5 551.3 274.1C554.9 275 559.3 275.7 564.7 275.7Z" fill="#84B6FF" stroke="#333333" stroke-width="2" stroke-miterlimit="10" stroke-linecap="round"/>
<path d="M482.5 218.9C490.84 218.9 497.6 212.139 497.6 203.8C497.6 195.46 490.84 188.7 482.5 188.7C474.161 188.7 467.4 195.46 467.4 203.8C467.4 212.139 474.161 218.9 482.5 218.9Z" fill="white" stroke="#333333" stroke-width="2" stroke-miterlimit="10" stroke-linecap="round"/>
<path d="M508.5 154.8L460.1 137.6C457 136.5 457 132.1 460.1 131L508.5 113.8C510.5 113.1 511.4 110.9 510.5 109L488.5 62.6C487.1 59.6 490.2 56.5001 493.2 57.9001L539.6 79.9001C541.5 80.8001 543.7 79.9001 544.4 77.9001L561.6 29.5C562.7 26.4 567.1 26.4 568.2 29.5L585.2 78C585.9 80 588.1 80.9001 590 80L636.4 58C639.4 56.6 642.5 59.7001 641.1 62.7001L619 109C618.1 110.9 619 113.1 621 113.8L669.4 131C672.5 132.1 672.5 136.5 669.4 137.6L621 154.8H508.5Z" fill="#FFD568" stroke="#333333" stroke-width="2" stroke-miterlimit="10" stroke-linecap="round"/>
<path d="M587.5 108.5H572.3C571.1 108.5 570.2 109.4 570.2 110.6C570.2 111.8 571.1 112.7 572.3 112.7H587.5C588.7 112.7 589.6 111.8 589.6 110.6C589.6 109.4 588.7 108.5 587.5 108.5Z" fill="#333333"/>
<path d="M531.9 108.5H547.1C548.3 108.5 549.2 109.4 549.2 110.6C549.2 111.8 548.3 112.7 547.1 112.7H531.9C530.7 112.7 529.8 111.8 529.8 110.6C529.8 109.4 530.8 108.5 531.9 108.5Z" fill="#333333"/>
<path d="M593.8 119.2H572.9H546.6H525.7C523.6 119.2 522 121.1 522.5 123.1C524.3 130.9 531.2 136.7 539.5 136.7C547.7 136.7 554.6 131 556.5 123.4H562.9C564.8 131 571.7 136.7 579.9 136.7C588.2 136.7 595.2 130.9 596.9 123.1C597.4 121.1 595.8 119.2 593.8 119.2Z" fill="#333333" stroke="#333333" stroke-miterlimit="10"/>
<path d="M533.2 119.2L526.5 130.8C528 132.4 529.7 133.8 531.7 134.8L540.7 119.2H533.2Z" fill="white"/>
<path d="M553.4 119.2C555.5 119.2 557.1 121.1 556.6 123.1C554.8 130.9 547.9 136.7 539.6 136.7C531.3 136.7 524.3 130.9 522.6 123.1C522.1 121.1 523.7 119.2 525.8 119.2H553.4V119.2Z" stroke="#333333" stroke-miterlimit="10"/>
<path d="M482.8 206.7C481.1 207 479.5 206 479.2 204.3L471.8 169.3C471.5 167.6 472.5 166 474.2 165.7C475.9 165.4 477.5 166.4 477.8 168.1L485.2 203.1C485.5 204.7 484.5 206.4 482.8 206.7Z" fill="#E3B17A" stroke="#333333" stroke-width="2" stroke-miterlimit="10" stroke-linecap="round" stroke-linejoin="round"/>
<path d="M493.2 135.8C493.2 130 490.4 124.8 486 121.7C486.4 120.6 486.6 119.4 486.6 118.1C486.6 112.1 481.7 107.2 475.7 107.2C473.4 107.2 471.2 108 469.4 109.2C466.4 106.7 462.5 105.2 458.2 105.2C448.6 105.2 440.7 113 440.7 122.7C440.7 125.5 441.4 128.2 442.5 130.5C438.5 133.7 435.9 138.6 435.9 144.2C435.9 151.1 439.9 157.1 445.8 159.9C445.4 160.9 445.2 161.9 445.2 163C445.2 167.5 448.9 171.2 453.4 171.2C455.8 171.2 458 170.2 459.5 168.5C462.7 172 467.3 174.2 472.4 174.2C482 174.2 489.9 166.4 489.9 156.7C489.9 153.7 489.1 150.8 487.8 148.4C491.1 145.3 493.2 140.8 493.2 135.8Z" fill="white" stroke="#333333" stroke-width="2" stroke-miterlimit="10" stroke-linecap="round"/>
<path d="M475.8 118.4C485.4 118.4 493.3 126.2 493.3 135.9C493.3 145.6 485.5 153.4 475.8 153.4" stroke="#333333" stroke-width="2" stroke-miterlimit="10" stroke-linecap="round"/>
<path d="M453.5 161.6C443.9 161.6 436 153.8 436 144.1C436 134.5 443.8 126.6 453.5 126.6" stroke="#333333" stroke-width="2" stroke-miterlimit="10" stroke-linecap="round"/>
<path d="M461.7 163C461.7 167.5 458 171.2 453.5 171.2C449 171.2 445.3 167.5 445.3 163" stroke="#333333" stroke-width="2" stroke-miterlimit="10" stroke-linecap="round"/>
<path d="M464.9 118.1C464.9 112.1 469.8 107.2 475.8 107.2C481.8 107.2 486.7 112.1 486.7 118.1" stroke="#333333" stroke-width="2" stroke-miterlimit="10" stroke-linecap="round"/>
<path d="M576.1 274.4L602.5 280.2C594.5 277.9 590.9 265.8 594.5 253.2C597.9 241.2 606.5 233 614.1 234.1L600.4 231.9" fill="#84B6FF"/>
<path d="M576.1 274.4L602.5 280.2C594.5 277.9 590.9 265.8 594.5 253.2C597.9 241.2 606.5 233 614.1 234.1L600.4 231.9" stroke="#333333" stroke-width="2" stroke-miterlimit="10" stroke-linecap="round" stroke-linejoin="round"/>
<path d="M605.6 269.3C606.1 273.5 607.5 277.2 609.7 279.7C611.1 281.3 612.7 282.4 614.7 283C614.7 283 614.7 283 614.8 283C622.8 285.3 632.2 276.7 635.8 263.9C639.4 251.1 635.9 238.9 627.9 236.6C627.7 236.5 627.6 236.5 627.4 236.5L626.6 236.3C624.5 236 622.4 236.4 620.3 237.4C617.7 238.6 615.2 240.7 613 243.5C610.4 246.7 608.2 250.9 606.9 255.7C605.6 260.5 605.1 265.1 605.6 269.3Z" fill="white" stroke="#333333" stroke-width="2" stroke-miterlimit="10" stroke-linecap="round"/>
<path d="M626.5 236.3L615.5 234.3L614.2 234.1C606.5 233.1 597.9 241.2 594.6 253.2C591 265.9 594.6 278 602.6 280.2L603.6 280.4L614.8 282.9" fill="white"/>
<path d="M626.5 236.3L615.5 234.3L614.2 234.1C606.5 233.1 597.9 241.2 594.6 253.2C591 265.9 594.6 278 602.6 280.2L603.6 280.4L614.8 282.9" stroke="#333333" stroke-width="2" stroke-miterlimit="10" stroke-linecap="round"/>
<path d="M605.6 269.3C605.1 265.2 605.5 260.5 606.8 255.7C608.1 250.9 610.3 246.7 612.9 243.5" fill="white"/>
<path d="M605.6 269.3C605.1 265.2 605.5 260.5 606.8 255.7C608.1 250.9 610.3 246.7 612.9 243.5" stroke="#333333" stroke-width="2" stroke-miterlimit="10" stroke-linecap="round"/>
<path d="M553.3 274.4L526.9 280.2C534.9 277.9 538.5 265.8 534.9 253.2C531.5 241.2 522.9 233 515.3 234.1L529 231.9" fill="#84B6FF"/>
<path d="M553.3 274.4L526.9 280.2C534.9 277.9 538.5 265.8 534.9 253.2C531.5 241.2 522.9 233 515.3 234.1L529 231.9" stroke="#333333" stroke-width="2" stroke-miterlimit="10" stroke-linecap="round" stroke-linejoin="round"/>
<path d="M523.8 269.3C523.3 273.5 521.9 277.2 519.7 279.7C518.3 281.3 516.7 282.4 514.7 283C514.7 283 514.7 283 514.6 283C506.6 285.3 497.2 276.7 493.5 263.9C489.8 251.1 493.4 238.9 501.4 236.6C501.6 236.5 501.7 236.5 501.9 236.5L502.7 236.3C504.8 236 506.9 236.4 509 237.4C511.6 238.6 514.1 240.7 516.3 243.5C518.9 246.7 521.1 250.9 522.4 255.7C523.7 260.5 524.3 265.1 523.8 269.3Z" fill="white" stroke="#333333" stroke-width="2" stroke-miterlimit="10" stroke-linecap="round"/>
<path d="M502.9 236.3L513.9 234.3L515.2 234.1C522.9 233.1 531.5 241.2 534.8 253.2C538.4 265.9 534.8 278 526.8 280.2L525.8 280.4L514.6 282.9" fill="white"/>
<path d="M502.9 236.3L513.9 234.3L515.2 234.1C522.9 233.1 531.5 241.2 534.8 253.2C538.4 265.9 534.8 278 526.8 280.2L525.8 280.4L514.6 282.9" stroke="#333333" stroke-width="2" stroke-miterlimit="10" stroke-linecap="round"/>
<path d="M523.8 269.3C524.3 265.2 523.9 260.5 522.6 255.7C521.3 250.9 519.1 246.7 516.5 243.5" fill="white"/>
<path d="M523.8 269.3C524.3 265.2 523.9 260.5 522.6 255.7C521.3 250.9 519.1 246.7 516.5 243.5" stroke="#333333" stroke-width="2" stroke-miterlimit="10" stroke-linecap="round"/>
<path d="M622.4 149.7C619.2 143.8 613 139.8 605.8 139.8C600.7 139.8 596.1 141.8 592.7 145.1C588.8 142.8 584.2 141.5 579.3 141.5C571.4 141.5 564.3 145 559.4 150.5C554.3 141.4 544.7 135.3 533.6 135.3C523 135.3 513.6 140.9 508.4 149.3C498.5 151.9 491.2 160.8 491.2 171.5C491.2 184.2 501.5 194.4 514.1 194.4C517.3 194.4 520.4 193.7 523.2 192.5C525 193.2 527 193.7 529 194C534.5 201.1 543.1 205.6 552.8 205.6C561.7 205.6 569.7 201.8 575.2 195.7C580.3 199.5 586.6 201.8 593.4 201.8C603.7 201.8 612.8 196.6 618.3 188.7C618.4 188.7 618.5 188.7 618.6 188.7C629.5 188.7 638.4 179.9 638.4 168.9C638.3 159.5 631.4 151.5 622.4 149.7Z" fill="white" stroke="#333333" stroke-width="2" stroke-miterlimit="10" stroke-linecap="round"/>
<path d="M501.3 152.5C505 150 509.4 148.6 514.1 148.6L501.3 152.5Z" fill="white"/>
<path d="M501.3 152.5C505 150 509.4 148.6 514.1 148.6" stroke="#333333" stroke-width="2" stroke-miterlimit="10" stroke-linecap="round"/>
<path d="M554.7 158C555.8 155.2 557.4 152.6 559.4 150.4L554.7 158Z" fill="white"/>
<path d="M554.7 158C555.8 155.2 557.4 152.6 559.4 150.4" stroke="#333333" stroke-width="2" stroke-miterlimit="10" stroke-linecap="round"/>
<path d="M529 194.1C525 189 522.6 182.5 522.6 175.5L529 194.1Z" fill="white"/>
<path d="M529 194.1C525 189 522.6 182.5 522.6 175.5" stroke="#333333" stroke-width="2" stroke-miterlimit="10" stroke-linecap="round"/>
<path d="M622.4 149.7C623.8 152.4 624.6 155.4 624.6 158.6L622.4 149.7Z" fill="white"/>
<path d="M622.4 149.7C623.8 152.4 624.6 155.4 624.6 158.6" stroke="#333333" stroke-width="2" stroke-miterlimit="10" stroke-linecap="round"/>
<path d="M589.4 149.3C590.3 147.7 591.4 146.3 592.7 145L589.4 149.3Z" fill="white"/>
<path d="M589.4 149.3C590.3 147.7 591.4 146.3 592.7 145" stroke="#333333" stroke-width="2" stroke-miterlimit="10" stroke-linecap="round"/>
<path d="M575.2 195.8C572.9 194.1 570.9 192 569.2 189.8L575.2 195.8Z" fill="white"/>
<path d="M575.2 195.8C572.9 194.1 570.9 192 569.2 189.8" stroke="#333333" stroke-width="2" stroke-miterlimit="10" stroke-linecap="round"/>
<path d="M622.4 180.1C621.5 183.3 620.1 186.2 618.2 188.9L622.4 180.1Z" fill="white"/>
<path d="M622.4 180.1C621.5 183.3 620.1 186.2 618.2 188.9" stroke="#333333" stroke-width="2" stroke-miterlimit="10" stroke-linecap="round"/>
<path d="M475.8 194.1C480.6 193.1 485.3 196.2 486.4 201C487.4 205.8 484.3 210.5 479.5 211.6" fill="white"/>
<path d="M475.8 194.1C480.6 193.1 485.3 196.2 486.4 201C487.4 205.8 484.3 210.5 479.5 211.6" stroke="#333333" stroke-width="2" stroke-miterlimit="10" stroke-linecap="round"/>
<path d="M799.1 208.4L841.3 264.8C846.5 271.7 856.4 272.9 863 267.3C869.5 261.8 870.2 252 864.5 245.7L817.3 193.5C813 188.8 805.8 188.3 800.9 192.4C796.2 196.3 795.4 203.4 799.1 208.4Z" fill="#FC6E6E" stroke="#333333" stroke-width="2" stroke-miterlimit="10"/>
<path d="M791.5 208.4L749.3 264.8C744.1 271.7 734.2 272.9 727.6 267.3C721.1 261.8 720.4 252 726.1 245.7L773.3 193.5C777.6 188.8 784.8 188.3 789.7 192.4C794.5 196.3 795.3 203.4 791.5 208.4Z" fill="#FC6E6E" stroke="#333333" stroke-width="2" stroke-miterlimit="10"/>
<path d="M795.3 282.5C800.7 282.5 805.1 281.8 808.6 280.9C814.1 279.4 817.6 277.1 819.6 275.6C827.8 269.4 831.9 259.3 832.6 248.1C833.5 232.7 827.5 215.4 816.2 203.8C816.1 203.7 816.1 203.7 816 203.6C804.9 192.4 785.6 192.4 774.5 203.6C774.4 203.7 774.4 203.7 774.3 203.8C763 215.4 757.1 232.7 757.9 248.1C758.5 259.2 762.7 269.4 770.9 275.6C772.9 277.1 776.4 279.3 781.9 280.9C785.5 281.9 789.9 282.5 795.3 282.5Z" fill="#FC6E6E" stroke="#333333" stroke-width="2" stroke-miterlimit="10"/>
<path d="M781.9 280.8C785.5 281.8 789.9 282.5 795.3 282.4C800.7 282.4 805.1 281.7 808.6 280.8" stroke="#333333" stroke-width="2" stroke-miterlimit="10" stroke-linecap="round"/>
<path d="M790 282.2L753.5 297.3L733.7 253.5L761.5 243.5" fill="#FC6E6E"/>
<path d="M790 282.2L753.5 297.3L733.7 253.5L761.5 243.5" stroke="#333333" stroke-width="2" stroke-miterlimit="10"/>
<path d="M760.1 282.3C760.3 286.6 759.6 290.4 757.9 293.2C756.8 295 755.4 296.4 753.6 297.3C753.6 297.3 753.6 297.3 753.5 297.3C746 300.9 735.2 294.2 729.4 282.2C723.6 270.2 725 257.6 732.4 253.9C732.6 253.8 732.7 253.8 732.9 253.7L733.7 253.4C735.7 252.8 737.8 252.8 740.1 253.4C742.9 254.1 745.7 255.8 748.4 258.1C751.5 260.8 754.4 264.6 756.5 269.1C758.7 273.6 759.8 278.1 760.1 282.3Z" fill="#FC6E6E" stroke="#333333" stroke-width="2" stroke-miterlimit="10"/>
<path d="M800.7 282.2L837.1 297.3L857 253.5L829.2 243.5" fill="#FC6E6E"/>
<path d="M800.7 282.2L837.1 297.3L857 253.5L829.2 243.5" stroke="#333333" stroke-width="2" stroke-miterlimit="10"/>
<path d="M830.6 282.3C830.4 286.6 831.1 290.4 832.8 293.2C833.9 295 835.3 296.4 837.1 297.3C837.1 297.3 837.1 297.3 837.2 297.3C844.7 300.9 855.5 294.2 861.3 282.2C867.1 270.2 865.7 257.6 858.3 253.9C858.1 253.8 858 253.8 857.8 253.7L857 253.4C855 252.8 852.9 252.8 850.6 253.4C847.8 254.1 845 255.8 842.3 258.1C839.2 260.8 836.3 264.6 834.2 269.1C832 273.6 830.8 278.1 830.6 282.3Z" fill="#FC6E6E" stroke="#333333" stroke-width="2" stroke-miterlimit="10"/>
<path d="M824.3 195.3L836.9 191.1C842.1 189.4 847.6 189.3 852.8 190.8L862.8 193.6C863.6 193.8 863.7 195 862.9 195.3L850.7 199.8C847.4 201 843.8 201.6 840.2 201.4L824.2 200.7C824.3 200.8 824.3 195.1 824.3 195.3Z" fill="#FFD467" stroke="#333333" stroke-width="2" stroke-miterlimit="10"/>
<path d="M759.1 233.1C757.9 232.7 757.3 231.4 757.8 230.2L769.6 197.8C770 196.6 771.3 196 772.5 196.5C773.7 196.9 774.3 198.2 773.8 199.4L762 231.8C761.5 233 760.2 233.6 759.1 233.1Z" fill="#E3B17A" stroke="#333333" stroke-width="2" stroke-miterlimit="10" stroke-linecap="round" stroke-linejoin="round"/>
<path d="M831.6 233.1C832.8 232.7 833.4 231.4 832.9 230.2L821.1 197.8C820.7 196.6 819.4 196 818.2 196.5C817 196.9 816.4 198.2 816.9 199.4L828.7 231.8C829.1 233 830.4 233.6 831.6 233.1Z" fill="#E3B17A" stroke="#333333" stroke-width="2" stroke-miterlimit="10" stroke-linecap="round" stroke-linejoin="round"/>
<path d="M766.3 195.3V200.8L795.3 226.5L824.3 200.8V195.3H766.3Z" fill="#FFD467" stroke="#333333" stroke-width="2" stroke-miterlimit="10"/>
<path d="M795.3 203.1C827.498 203.1 853.6 176.998 853.6 144.8C853.6 112.602 827.498 86.5 795.3 86.5C763.102 86.5 737 112.602 737 144.8C737 176.998 763.102 203.1 795.3 203.1Z" fill="#FC6E6E" stroke="#333333" stroke-width="2" stroke-miterlimit="10" stroke-linecap="round" stroke-linejoin="round"/>
<path d="M824.3 195.3L836.9 191.1C842.1 189.4 847.6 189.3 852.8 190.8L862.8 193.6C863.6 193.8 863.7 195 862.9 195.3L850.7 199.8C847.4 201 843.8 201.6 840.2 201.4L824.2 200.7C824.3 200.8 824.3 195.1 824.3 195.3Z" stroke="#333333" stroke-width="2" stroke-miterlimit="10"/>
<path d="M791.3 198.7C814.717 198.7 833.7 179.717 833.7 156.3C833.7 132.883 814.717 113.9 791.3 113.9C767.883 113.9 748.9 132.883 748.9 156.3C748.9 179.717 767.883 198.7 791.3 198.7Z" fill="#FDFDFD"/>
<path d="M825.5 163.7C818.4 163.3 812.3 168.7 811.9 175.8C811.6 181 814.4 185.7 818.8 187.9C825.5 182.5 830.5 174.9 832.7 166.2C830.6 164.8 828.2 163.8 825.5 163.7Z" fill="#FFD467"/>
<path d="M757.1 163.7C764.2 163.3 770.3 168.7 770.7 175.8C771 181 768.2 185.7 763.8 187.9C757.1 182.5 752.1 174.9 749.9 166.2C752 164.8 754.5 163.8 757.1 163.7Z" fill="#FFD467"/>
<path d="M791.3 198.7C814.717 198.7 833.7 179.717 833.7 156.3C833.7 132.883 814.717 113.9 791.3 113.9C767.883 113.9 748.9 132.883 748.9 156.3C748.9 179.717 767.883 198.7 791.3 198.7Z" stroke="#333333" stroke-width="2" stroke-miterlimit="10"/>
<path d="M772.8 163C776.5 163 779.5 160 779.5 156.3C779.5 152.6 776.5 149.6 772.8 149.6C769.1 149.6 766.1 152.6 766.1 156.3C766.1 160 769.1 163 772.8 163Z" fill="#333333"/>
<path d="M805.8 163C809.5 163 812.5 160 812.5 156.3C812.5 152.6 809.5 149.6 805.8 149.6C802.1 149.6 799.1 152.6 799.1 156.3C799.1 160 802.1 163 805.8 163Z" fill="#333333"/>
<path d="M779.5 146.4L768.5 143.5C767.4 143.2 766.7 142 767 140.9C767.3 139.8 768.5 139.1 769.6 139.4L780.6 142.3C781.7 142.6 782.4 143.8 782.1 144.9C781.7 146 780.6 146.7 779.5 146.4Z" fill="#333333"/>
<path d="M799.2 146.4L810.2 143.5C811.3 143.2 812 142 811.7 140.9C811.4 139.8 810.2 139.1 809.1 139.4L798.1 142.3C797 142.6 796.3 143.8 796.6 144.9C796.9 146 798.1 146.7 799.2 146.4Z" fill="#333333"/>
<path d="M789.3 165.4C792.503 165.4 795.1 164.146 795.1 162.6C795.1 161.054 792.503 159.8 789.3 159.8C786.097 159.8 783.5 161.054 783.5 162.6C783.5 164.146 786.097 165.4 789.3 165.4Z" fill="#333333"/>
<path d="M789.3 176.9V165.7" stroke="#333333" stroke-width="2" stroke-miterlimit="10" stroke-linecap="round"/>
<path d="M772.8 176.9H805.8" stroke="#333333" stroke-width="2" stroke-miterlimit="10" stroke-linecap="round"/>
<path d="M884.6 144.8C884.6 161.9 870.7 175.8 853.6 175.8C850.7 175.8 848 175.4 845.3 174.7C841.4 163.7 840.1 153.5 840 144.8C839.9 127.1 845.1 115.3 845.3 114.9C845 114.4 844.7 113.8 844.3 113.3C844 112.8 843.6 112.3 843.3 111.8C843 111.4 842.7 110.9 842.4 110.5C840.5 107.8 838.3 105.4 835.9 103.1C835.6 102.8 835.3 102.5 835 102.2C832.3 99.7 829.5 97.5 826.4 95.5C826.2 95.3 825.9 95.2 825.6 95C824.6 94.4 823.6 93.8 822.6 93.3C822.1 93.1 821.7 92.8 821.2 92.6C820.8 92.4 820.3 92.2 819.9 92C819.1 91.6 818.3 91.3 817.5 91C817 90.8 816.5 90.6 816 90.4C814.8 89.9 813.5 89.5 812.2 89.1C811.7 88.9 811.2 88.8 810.6 88.6C810.6 88.6 810.6 88.6 810.5 88.6C810 88.4 809.4 88.3 808.8 88.2C808.6 88.2 808.5 88.1 808.3 88.1C807.8 88 807.3 87.9 806.8 87.8C806.2 87.7 805.7 87.6 805.1 87.5C805 87.5 804.8 87.5 804.7 87.4C804.3 87.3 803.9 87.3 803.4 87.2C803.2 87.2 802.9 87.1 802.6 87.1C801.6 87 800.5 86.9 799.4 86.8C799 86.8 798.7 86.8 798.3 86.7C798.2 86.7 798.1 86.7 797.9 86.7C797.5 86.7 797.1 86.7 796.7 86.7C796.2 86.7 795.6 86.7 795.1 86.7C794.5 86.7 794 86.7 793.5 86.7C793.2 86.7 792.9 86.7 792.5 86.7C792 86.7 791.5 86.7 791 86.8C790.6 86.8 790.1 86.9 789.7 86.9C788.8 87 787.9 87.1 787 87.2C786.5 87.3 786.1 87.3 785.6 87.4C785.5 87.4 785.4 87.4 785.4 87.4C784.9 87.5 784.5 87.5 784.1 87.6C783.9 87.6 783.7 87.7 783.6 87.7C783.1 87.8 782.5 87.9 782 88.1C782 88.1 782 88.1 781.9 88.1C781.3 88.2 780.7 88.4 780.1 88.5C779.7 88.6 779.2 88.7 778.8 88.9C778.5 89 778.2 89.1 777.9 89.2C776.7 89.5 775.6 90 774.5 90.4C774.1 90.6 773.6 90.7 773.2 90.9C772 91.4 770.7 92 769.5 92.6C769 92.8 768.6 93 768.1 93.3C767.6 93.6 767 93.9 766.5 94.2C766 94.5 765.5 94.8 765 95.1C764.1 95.6 763.3 96.2 762.5 96.7C762.2 96.9 761.9 97.1 761.6 97.3C758.7 99.4 756 101.7 753.5 104.2C753.2 104.5 752.8 104.9 752.5 105.2L752.4 105.3C752.1 105.6 751.8 106 751.5 106.3C750.7 107.2 749.9 108.1 749.2 109.1C749 109.3 748.8 109.6 748.6 109.9C748.3 110.3 748 110.8 747.7 111.2C747.1 112.1 746.5 113 745.9 113.9C740.2 122.9 737 133.5 737 144.9C737 156.3 740.3 166.9 745.9 175.9C745.4 175.9 744.9 175.9 744.4 175.9C727.3 175.9 713.4 162 713.4 144.9C713.4 129.5 724.6 116.7 739.4 114.3C750.2 94.6 771.2 81.2 795.3 81.2C819.3 81.2 840.1 94.4 851 114C851.9 113.9 852.7 113.9 853.6 113.9C870.7 113.7 884.6 127.6 884.6 144.8Z" fill="#FFD467" stroke="#333333" stroke-width="2" stroke-miterlimit="10"/>
<path d="M829.6 98.4001C824.6 89.2001 818.6 78.5 813.5 69.2C808.8 60.6 804.1 51.9 799.3 43.3C800.4 47.4 804.4 62.8001 799.3 73.3001C798.3 75.3001 796.5 78.4 792.9 80.1C787.9 82.5 783.1 80.6001 782.5 80.3001C777.7 78.3001 774.4 73.5001 774 67.8001C770 77.5001 765.1 88.6001 761.1 98.3001" fill="#FC6E6E"/>
<path d="M829.6 98.4001C824.6 89.2001 818.6 78.5 813.5 69.2C808.8 60.6 804.1 51.9 799.3 43.3C800.4 47.4 804.4 62.8001 799.3 73.3001C798.3 75.3001 796.5 78.4 792.9 80.1C787.9 82.5 783.1 80.6001 782.5 80.3001C777.7 78.3001 774.4 73.5001 774 67.8001C770 77.5001 765.1 88.6001 761.1 98.3001" stroke="#333333" stroke-width="2" stroke-miterlimit="10" stroke-linecap="round" stroke-linejoin="round"/>
<path d="M1146.6 199.7V269.5C1147.8 269.7 1149 269.8 1150.3 269.7L1185.5 267.8L1187.3 267.7C1193.9 266.9 1199.1 261.2 1199.1 254.4C1199.1 253.6 1199 252.8 1198.9 252C1198.7 251.4 1198.6 250.8 1198.4 250.2C1197.6 247.2 1196.7 244.3 1195.6 241.4C1191.5 230.6 1185.4 220.5 1177.4 212.3C1177.3 212.2 1177.2 212.1 1177.1 212C1168.9 203.8 1157.7 199.7 1146.6 199.7Z" fill="#E3B17A" stroke="#333333" stroke-width="2" stroke-miterlimit="10"/>
<path d="M1146.6 199.7V269.5C1145.4 269.7 1144.2 269.8 1142.9 269.7L1107.7 267.8L1105.9 267.7C1099.3 266.9 1094.1 261.2 1094.1 254.4C1094.1 253.6 1094.2 252.8 1094.3 252C1094.5 251.4 1094.6 250.8 1094.8 250.2C1095.6 247.2 1096.5 244.3 1097.6 241.4C1101.7 230.6 1107.8 220.5 1115.8 212.3C1115.9 212.2 1116 212.1 1116.1 212C1124.2 203.8 1135.4 199.7 1146.6 199.7Z" fill="#E3B17A" stroke="#333333" stroke-width="2" stroke-miterlimit="10"/>
<path d="M1146.5 292.3C1151.9 292.3 1156.3 291.6 1159.8 290.7C1165.3 289.2 1168.8 286.9 1170.8 285.4C1179 279.2 1183.1 269.1 1183.8 257.9C1184.7 242.5 1178.7 225.2 1167.4 213.6C1167.3 213.5 1167.3 213.5 1167.2 213.4C1156.1 202.2 1136.8 202.2 1125.7 213.4C1125.6 213.5 1125.6 213.5 1125.5 213.6C1114.2 225.2 1108.3 242.5 1109.1 257.9C1109.7 269 1113.9 279.2 1122.1 285.4C1124.1 286.9 1127.6 289.1 1133.1 290.7C1136.7 291.6 1141.1 292.3 1146.5 292.3Z" fill="#44B97A" stroke="#333333" stroke-width="2" stroke-miterlimit="10"/>
<path d="M1108.71 116.816C1112.02 113.496 1111.36 107.45 1107.22 103.31C1103.08 99.1707 1097.03 98.5059 1093.71 101.825C1090.4 105.145 1091.06 111.191 1095.2 115.331C1099.34 119.47 1105.39 120.135 1108.71 116.816Z" fill="#44B97A" stroke="#333333" stroke-width="2" stroke-miterlimit="10"/>
<path d="M1098.2 106.2L1104.3 112.3" stroke="#333333" stroke-width="2" stroke-miterlimit="10" stroke-linecap="round"/>
<path d="M1197.8 115.291C1201.94 111.151 1202.61 105.104 1199.29 101.785C1195.97 98.4655 1189.92 99.1303 1185.78 103.27C1181.64 107.409 1180.98 113.456 1184.3 116.775C1187.62 120.095 1193.66 119.43 1197.8 115.291Z" fill="#44B97A" stroke="#333333" stroke-width="2" stroke-miterlimit="10"/>
<path d="M1194.8 106.2L1188.7 112.3" stroke="#333333" stroke-width="2" stroke-miterlimit="10" stroke-linecap="round"/>
<path d="M1146.5 212.9C1178.7 212.9 1204.8 186.798 1204.8 154.6C1204.8 122.402 1178.7 96.3 1146.5 96.3C1114.3 96.3 1088.2 122.402 1088.2 154.6C1088.2 186.798 1114.3 212.9 1146.5 212.9Z" fill="#44B97A" stroke="#333333" stroke-width="2" stroke-miterlimit="10"/>
<path d="M1144.6 3.1C1145 0.3 1148 0.3 1148.4 3.1L1152.5 32.3L1158.1 71.9C1158.3 73.5 1157.4 75 1156.2 75H1146.5H1136.8C1135.6 75 1134.7 73.5 1134.9 71.9L1140.5 32.3L1144.6 3.1Z" fill="#44B97A" stroke="#333333" stroke-width="2" stroke-miterlimit="10"/>
<path d="M1122.5 14.9999C1122.2 12.1999 1125.1 11.3999 1126.2 13.9999L1137.7 41.0999L1153.3 77.8999C1153.9 79.3999 1153.4 80.9999 1152.3 81.2999L1142.9 83.7999L1133.5 86.2999C1132.3 86.5999 1131.1 85.3999 1130.9 83.7999L1126.1 44.0999L1122.5 14.9999Z" fill="#44B97A" stroke="#333333" stroke-width="2" stroke-miterlimit="10"/>
<path d="M1166.9 13.9999C1168 11.3999 1170.9 12.1999 1170.6 14.9999L1167 44.2999L1162.2 83.9999C1162 85.5999 1160.7 86.7999 1159.6 86.4999L1150.2 83.9999L1140.8 81.4999C1139.6 81.1999 1139.1 79.4999 1139.8 78.0999L1155.4 41.2999L1166.9 13.9999Z" fill="#44B97A" stroke="#333333" stroke-width="2" stroke-miterlimit="10"/>
<path d="M1168.6 106.7H1124.4L1121 53.8999H1172.1L1168.6 106.7Z" fill="#FFD467" stroke="#333333" stroke-width="2" stroke-miterlimit="10"/>
<path d="M1116.5 46.3999H1176.6C1177.6 46.3999 1178.5 47.1999 1178.5 48.2999V59.4999C1178.5 60.4999 1177.7 61.3999 1176.6 61.3999H1116.5C1115.5 61.3999 1114.6 60.5999 1114.6 59.4999V48.2999C1114.6 47.1999 1115.4 46.3999 1116.5 46.3999Z" fill="#FFD467" stroke="#333333" stroke-width="2" stroke-miterlimit="10"/>
<path d="M1126.39 107.278C1130.65 106.135 1132.58 99.4995 1130.7 92.458C1128.81 85.4164 1123.82 80.635 1119.55 81.7785C1115.29 82.9219 1113.36 89.5572 1115.24 96.5988C1117.13 103.64 1122.12 108.422 1126.39 107.278Z" fill="#FFF9F0" stroke="#333333" stroke-width="2" stroke-miterlimit="10"/>
<path d="M1177.72 96.619C1179.61 89.5774 1177.68 82.9422 1173.41 81.7988C1169.14 80.6553 1164.15 85.4366 1162.26 92.4782C1160.38 99.5198 1162.31 106.155 1166.58 107.298C1170.84 108.442 1175.83 103.661 1177.72 96.619Z" fill="#FFF9F0" stroke="#333333" stroke-width="2" stroke-miterlimit="10"/>
<path d="M1151.7 77C1152.75 77 1153.6 76.1493 1153.6 75.1C1153.6 74.0506 1152.75 73.2 1151.7 73.2C1150.65 73.2 1149.8 74.0506 1149.8 75.1C1149.8 76.1493 1150.65 77 1151.7 77Z" fill="#333333"/>
<path d="M1141.4 77C1142.45 77 1143.3 76.1493 1143.3 75.1C1143.3 74.0506 1142.45 73.2 1141.4 73.2C1140.35 73.2 1139.5 74.0506 1139.5 75.1C1139.5 76.1493 1140.35 77 1141.4 77Z" fill="#333333"/>
<path d="M1150.2 81.2C1149.3 82.1 1148 82.7 1146.5 82.7C1145 82.7 1143.8 82.1 1142.8 81.2" stroke="#333333" stroke-width="2" stroke-miterlimit="10" stroke-linecap="round"/>
<path d="M1146.5 200C1169.92 200 1188.9 181.017 1188.9 157.6C1188.9 134.183 1169.92 115.2 1146.5 115.2C1123.08 115.2 1104.1 134.183 1104.1 157.6C1104.1 181.017 1123.08 200 1146.5 200Z" fill="#E3B17A" stroke="#333333" stroke-width="2" stroke-miterlimit="10"/>
<path d="M1136.4 138.1H1130.9C1129.7 138.1 1128.8 139 1128.8 140.2C1128.8 141.4 1129.7 142.3 1130.9 142.3H1136.4C1137.6 142.3 1138.5 141.4 1138.5 140.2C1138.5 139.1 1137.5 138.1 1136.4 138.1Z" fill="#333333"/>
<path d="M1119.9 179.8C1125.31 179.8 1129.7 175.412 1129.7 170C1129.7 164.588 1125.31 160.2 1119.9 160.2C1114.49 160.2 1110.1 164.588 1110.1 170C1110.1 175.412 1114.49 179.8 1119.9 179.8Z" fill="#FFD568"/>
<path d="M1139.8 162.7H1153.1C1157.1 162.7 1160.3 165.9 1160.3 169.9C1160.3 173.9 1157.1 177.1 1153.1 177.1H1139.8C1135.8 177.1 1132.6 173.9 1132.6 169.9C1132.6 166 1135.9 162.7 1139.8 162.7Z" fill="#FFD568" stroke="#333333" stroke-width="2" stroke-miterlimit="10"/>
<path d="M1173.1 179.8C1178.51 179.8 1182.9 175.412 1182.9 170C1182.9 164.588 1178.51 160.2 1173.1 160.2C1167.69 160.2 1163.3 164.588 1163.3 170C1163.3 175.412 1167.69 179.8 1173.1 179.8Z" fill="#FFD568"/>
<path d="M1155.1 170H1138" stroke="#333333" stroke-width="2" stroke-miterlimit="10" stroke-linecap="round"/>
<path d="M1133.6 156.4C1135.81 156.4 1137.6 154.609 1137.6 152.4C1137.6 150.191 1135.81 148.4 1133.6 148.4C1131.39 148.4 1129.6 150.191 1129.6 152.4C1129.6 154.609 1131.39 156.4 1133.6 156.4Z" fill="#333333"/>
<path d="M1156.6 138.1H1162.1C1163.3 138.1 1164.2 139 1164.2 140.2C1164.2 141.4 1163.3 142.3 1162.1 142.3H1156.6C1155.4 142.3 1154.5 141.4 1154.5 140.2C1154.5 139.1 1155.5 138.1 1156.6 138.1Z" fill="#333333"/>
<path d="M1159.4 156.4C1161.61 156.4 1163.4 154.609 1163.4 152.4C1163.4 150.191 1161.61 148.4 1159.4 148.4C1157.19 148.4 1155.4 150.191 1155.4 152.4C1155.4 154.609 1157.19 156.4 1159.4 156.4Z" fill="#333333"/>
<path d="M1158.7 304H1173.7C1179.7 304 1185.5 298.8 1184.8 292.8L1178.4 240.3C1177.9 236 1175.6 232.8 1171.3 232.8H1158.1C1153.4 232.8 1149.5 236.6 1149.5 241.4L1148.5 293.7C1148.4 299.3 1153 304 1158.7 304Z" fill="#44B97A" stroke="#333333" stroke-width="2" stroke-miterlimit="10"/>
<path d="M1134.2 304H1119.2C1113.2 304 1107.4 298.8 1108.1 292.8L1114.5 240.3C1115 236 1117.3 232.8 1121.6 232.8H1134.8C1139.5 232.8 1143.4 236.6 1143.4 241.4L1144.4 293.7C1144.6 299.3 1140 304 1134.2 304Z" fill="#44B97A" stroke="#333333" stroke-width="2" stroke-miterlimit="10"/>
<path d="M1173.8 304H1158.8C1153.1 304 1148.5 299.3 1148.6 293.6L1148.8 285.4H1184.1L1185 292.8C1185.5 298.7 1179.8 304 1173.8 304Z" fill="#E3B17A" stroke="#333333" stroke-width="2" stroke-miterlimit="10"/>
<path d="M1144.4 293.5C1144.5 299.2 1139.9 303.9 1134.2 303.9H1119.2C1113.2 303.9 1107.4 298.7 1108.1 292.7L1109 285.3H1144.3L1144.4 293.5Z" fill="#E3B17A" stroke="#333333" stroke-width="2" stroke-miterlimit="10"/>
<path d="M1106.7 241L1143.1 239.8C1143.3 239.8 1143.5 239.8 1143.7 239.8C1144.7 239.8 1145.6 239.9 1146.6 240.1C1153.5 241.4 1158.8 247.5 1158.8 254.9C1158.8 262.3 1153.5 268.4 1146.6 269.7C1146.4 269.7 1146.2 269.8 1146 269.8C1145.8 269.8 1145.5 269.9 1145.2 269.9C1144.4 270 1143.6 270 1142.8 270L1105.7 268" fill="#E3B17A"/>
<path d="M1106.7 241L1143.1 239.8C1143.3 239.8 1143.5 239.8 1143.7 239.8C1144.7 239.8 1145.6 239.9 1146.6 240.1C1153.5 241.4 1158.8 247.5 1158.8 254.9C1158.8 262.3 1153.5 268.4 1146.6 269.7C1146.4 269.7 1146.2 269.8 1146 269.8C1145.8 269.8 1145.5 269.9 1145.2 269.9C1144.4 270 1143.6 270 1142.8 270L1105.7 268" stroke="#333333" stroke-width="2" stroke-miterlimit="10" stroke-linecap="round" stroke-linejoin="round"/>
<path d="M1148 254H1148.1C1149.4 253.9 1150.3 252.9 1150.3 251.6L1149.1 224.5C1149 223.2 1148 222.3 1146.7 222.3H1146.6C1145.3 222.4 1144.4 223.4 1144.4 224.7L1145.6 251.8C1145.6 253.1 1146.7 254.1 1148 254Z" fill="#E3B17A" stroke="#333333" stroke-width="2" stroke-miterlimit="10" stroke-linecap="round" stroke-linejoin="round"/>
<path d="M1127.3 205.1C1126.2 200.9 1127.3 196.7 1129.9 193.6C1129.4 192.9 1129 192 1128.8 191.1C1127.7 186.8 1130.3 182.4 1134.6 181.3C1136.3 180.9 1138 181 1139.5 181.6C1141.2 179.2 1143.7 177.4 1146.8 176.6C1153.7 174.8 1160.8 179 1162.6 185.9C1163.1 187.9 1163.1 189.9 1162.7 191.8C1166.2 193.3 1169 196.4 1170 200.4C1171.3 205.4 1169.5 210.4 1165.8 213.5C1166.3 214.1 1166.6 214.8 1166.8 215.6C1167.6 218.8 1165.7 222.2 1162.4 223C1160.7 223.4 1158.9 223.1 1157.6 222.2C1156 225.3 1153.1 227.7 1149.4 228.7C1142.5 230.5 1135.4 226.3 1133.6 219.4C1133 217.2 1133.1 215.1 1133.6 213C1130.6 211.5 1128.2 208.7 1127.3 205.1Z" fill="white" stroke="#333333" stroke-width="2" stroke-miterlimit="10" stroke-linecap="round"/>
<path d="M1136.6 189.3C1129.7 191.1 1125.5 198.1 1127.3 205.1C1129.1 212.1 1136.1 216.2 1143.1 214.4" stroke="#333333" stroke-width="2" stroke-miterlimit="10" stroke-linecap="round"/>
<path d="M1160.6 216.2C1167.5 214.4 1171.7 207.4 1169.9 200.4C1168.1 193.4 1161.1 189.3 1154.1 191.1" stroke="#333333" stroke-width="2" stroke-miterlimit="10" stroke-linecap="round"/>
<path d="M1155 218.7C1155.8 221.9 1159.2 223.9 1162.4 223.1C1165.6 222.3 1167.6 218.9 1166.8 215.7" stroke="#333333" stroke-width="2" stroke-miterlimit="10" stroke-linecap="round"/>
<path d="M1144.3 187.1C1143.2 182.8 1138.8 180.2 1134.5 181.3C1130.2 182.4 1127.6 186.8 1128.7 191.1" stroke="#333333" stroke-width="2" stroke-miterlimit="10" stroke-linecap="round"/>
<path d="M1186.4 241L1150 239.8C1149.8 239.8 1149.6 239.8 1149.4 239.8C1148.4 239.8 1147.5 239.9 1146.6 240.1C1139.7 241.4 1134.4 247.5 1134.4 254.9C1134.4 262.3 1139.7 268.4 1146.6 269.7C1146.8 269.7 1147 269.8 1147.2 269.8C1147.4 269.8 1147.7 269.9 1148 269.9C1148.8 270 1149.6 270 1150.4 270L1187.5 268" fill="#E3B17A"/>
<path d="M1186.4 241L1150 239.8C1149.8 239.8 1149.6 239.8 1149.4 239.8C1148.4 239.8 1147.5 239.9 1146.6 240.1C1139.7 241.4 1134.4 247.5 1134.4 254.9C1134.4 262.3 1139.7 268.4 1146.6 269.7C1146.8 269.7 1147 269.8 1147.2 269.8C1147.4 269.8 1147.7 269.9 1148 269.9C1148.8 270 1149.6 270 1150.4 270L1187.5 268" stroke="#333333" stroke-width="2" stroke-miterlimit="10" stroke-linecap="round" stroke-linejoin="round"/>
<path d="M1008.6 90.0999C1025.56 90.0999 1039.3 76.3551 1039.3 59.4C1039.3 42.4448 1025.56 28.7 1008.6 28.7C991.645 28.7 977.9 42.4448 977.9 59.4C977.9 76.3551 991.645 90.0999 1008.6 90.0999Z" fill="#FFD568" stroke="#333333" stroke-width="2" stroke-miterlimit="10" stroke-linecap="round"/>
<path d="M1008.6 90.0999C1025.56 90.0999 1039.3 76.3551 1039.3 59.4C1039.3 42.4448 1025.56 28.7 1008.6 28.7C991.645 28.7 977.9 42.4448 977.9 59.4C977.9 76.3551 991.645 90.0999 1008.6 90.0999Z" fill="#FFD568" stroke="#333333" stroke-width="2" stroke-miterlimit="10" stroke-linecap="round"/>
<path d="M1018.1 92.4999C1018.8 93.0999 1019.8 93.0999 1020.4 92.3999L1033.4 77.9999C1034 77.2999 1034 76.2999 1033.3 75.6999C1032.6 75.0999 1031.6 75.0999 1031 75.7999L1018 90.1999C1017.4 90.7999 1017.4 91.8999 1018.1 92.4999Z" fill="#E3B17A" stroke="#333333" stroke-width="2" stroke-miterlimit="10" stroke-linecap="round" stroke-linejoin="round"/>
<path d="M1032.3 57.2C1033.9 54.5 1036.5 52.9 1039.4 52.7C1039.5 52.1 1039.7 51.5 1040.1 50.9C1041.7 48.2 1045.2 47.2 1048 48.8C1049.1 49.4 1049.9 50.4 1050.3 51.4C1052.4 51.1 1054.6 51.4 1056.5 52.5C1060.9 55.1 1062.4 60.8 1059.8 65.2C1059 66.5 1058 67.5 1056.9 68.3C1057.9 70.8 1057.8 73.8 1056.3 76.4C1054.4 79.6 1051 81.2 1047.6 81C1047.5 81.5 1047.3 82.1 1047 82.6C1045.8 84.7 1043.1 85.4 1041 84.2C1039.9 83.6 1039.2 82.5 1038.9 81.4C1036.5 82.2 1033.8 81.9 1031.4 80.6C1027 78 1025.5 72.3 1028.1 67.9C1028.9 66.5 1030 65.4 1031.3 64.6C1030.7 62.1 1030.9 59.5 1032.3 57.2Z" fill="white" stroke="#333333" stroke-width="2" stroke-miterlimit="10" stroke-linecap="round"/>
<path d="M1044.9 53.8C1040.5 51.2 1034.8 52.7 1032.2 57.1C1029.6 61.5 1031.1 67.2 1035.5 69.8" stroke="#333333" stroke-width="2" stroke-miterlimit="10" stroke-linecap="round"/>
<path d="M1043.6 79.6001C1048 82.2001 1053.7 80.7001 1056.3 76.3001C1058.9 71.9001 1057.4 66.2001 1053 63.6001" stroke="#333333" stroke-width="2" stroke-miterlimit="10" stroke-linecap="round"/>
<path d="M1039.4 78.1001C1038.2 80.2001 1038.9 82.8001 1041 84.1001C1043.1 85.4001 1045.7 84.6001 1047 82.5001" stroke="#333333" stroke-width="2" stroke-miterlimit="10" stroke-linecap="round"/>
<path d="M1050 56.6C1051.6 53.9 1050.7 50.3 1047.9 48.7C1045.2 47.1 1041.6 48 1040 50.8" stroke="#333333" stroke-width="2" stroke-miterlimit="10" stroke-linecap="round"/>
<path d="M994.9 53.0999H1002.5" stroke="#333333" stroke-width="2" stroke-miterlimit="10" stroke-linecap="round"/>
<path d="M1022.2 53.0999H1014.6" stroke="#333333" stroke-width="2" stroke-miterlimit="10" stroke-linecap="round"/>
<path d="M1008.6 77.6998C1017.16 77.6998 1024.1 73.1331 1024.1 67.4998C1024.1 61.8665 1017.16 57.2998 1008.6 57.2998C1000.04 57.2998 993.1 61.8665 993.1 67.4998C993.1 73.1331 1000.04 77.6998 1008.6 77.6998Z" fill="#EF9D4D" stroke="#333333" stroke-width="2" stroke-miterlimit="10" stroke-linecap="round"/>
<path d="M1017 65.7C1014.8 67.9 1011.8 69.2 1008.5 69.2C1005.2 69.2 1002.2 67.9 1000 65.7" stroke="#333333" stroke-width="2" stroke-miterlimit="10" stroke-linecap="round"/>
<path d="M1031.6 32.5999C1031.6 35.6999 1028 38.2999 1023.6 38.2999H1015.7C1013.7 38.2999 1011.7 37.3999 1010.4 35.6999C1009.4 34.4999 1007.7 34.4999 1006.7 35.6999C1005.4 37.2999 1003.4 38.2999 1001.4 38.2999H993.5C989.1 38.2999 985.5 35.7999 985.5 32.5999C985.5 29.4999 989.1 26.8999 993.5 26.8999H1023.6C1028 26.8999 1031.6 29.4999 1031.6 32.5999Z" fill="white"/>
<path d="M1026.5 23.8999H990.5C985.2 23.8999 980.9 28.1999 980.9 33.4999C980.9 33.7999 980.9 34.1999 981 34.4999C981.5 39.2999 985.6 43.0999 990.5 43.0999H1000.2C1002.4 43.0999 1004.5 42.0999 1006 40.4999L1006.4 39.9999C1007.5 38.7999 1009.4 38.7999 1010.5 39.9999L1010.9 40.4999C1012.4 42.1999 1014.5 43.0999 1016.7 43.0999H1026.4C1031.4 43.0999 1035.4 39.2999 1035.9 34.4999C1035.9 34.1999 1036 33.7999 1036 33.4999C1036.1 28.1999 1031.8 23.8999 1026.5 23.8999ZM1031.6 32.5999C1031.6 35.6999 1028 38.2999 1023.6 38.2999H1015.7C1013.7 38.2999 1011.7 37.3999 1010.4 35.6999C1009.4 34.4999 1007.7 34.4999 1006.7 35.6999C1005.4 37.2999 1003.4 38.2999 1001.4 38.2999H993.5C989.1 38.2999 985.5 35.7999 985.5 32.5999C985.5 29.4999 989.1 26.8999 993.5 26.8999H1023.6C1028 26.8999 1031.6 29.4999 1031.6 32.5999Z" fill="#BF8CF3" stroke="#333333" stroke-width="2" stroke-miterlimit="10" stroke-linejoin="round"/>
<path d="M1008.6 199.7V269.5C1009.8 269.7 1011 269.8 1012.3 269.7L1047.5 267.8L1049.3 267.7C1055.9 266.9 1061.1 261.2 1061.1 254.4C1061.1 253.6 1061 252.8 1060.9 252C1060.7 251.4 1060.6 250.8 1060.4 250.2C1059.6 247.2 1058.7 244.3 1057.6 241.4C1053.5 230.6 1047.4 220.5 1039.4 212.3C1039.3 212.2 1039.2 212.1 1039.1 212C1030.9 203.8 1019.7 199.7 1008.6 199.7Z" fill="#666666" stroke="#333333" stroke-width="2" stroke-miterlimit="10" stroke-linecap="round"/>
<path d="M1008.6 199.7V269.5C1007.4 269.7 1006.2 269.8 1004.9 269.7L969.7 267.8L967.9 267.7C961.3 266.9 956.1 261.2 956.1 254.4C956.1 253.6 956.2 252.8 956.3 252C956.5 251.4 956.6 250.8 956.8 250.2C957.6 247.2 958.5 244.3 959.6 241.4C963.7 230.6 969.8 220.5 977.8 212.3C977.9 212.2 978 212.1 978.1 212C986.2 203.8 997.4 199.7 1008.6 199.7Z" fill="#666666" stroke="#333333" stroke-width="2" stroke-miterlimit="10" stroke-linecap="round"/>
<path d="M1008.5 292.3C1013.9 292.3 1018.3 291.6 1021.8 290.7C1027.3 289.2 1030.8 286.9 1032.8 285.4C1041 279.2 1045.1 269.1 1045.8 257.9C1046.7 242.5 1040.7 225.2 1029.4 213.6C1029.3 213.5 1029.3 213.5 1029.2 213.4C1018.1 202.2 998.8 202.2 987.7 213.4C987.6 213.5 987.6 213.5 987.5 213.6C976.2 225.2 970.3 242.5 971.1 257.9C971.7 269 975.9 279.2 984.1 285.4C986.1 286.9 989.6 289.1 995.1 290.7C998.7 291.6 1003.1 292.3 1008.5 292.3Z" fill="#666666" stroke="#333333" stroke-width="2" stroke-miterlimit="10" stroke-linecap="round"/>
<path d="M1013.5 270.4C1011.8 270.3 1010.1 270.3 1008.5 270.3C1006.9 270.3 1005.1 270.3 1003.5 270.4V291.9C1005.1 291.9 1006.7 292 1008.5 291.9C1010.3 291.9 1012 291.9 1013.5 291.9V270.4Z" fill="#FFD467"/>
<path d="M1013.5 237.1C1011.8 237 1010.1 237 1008.5 237C1006.9 237 1005.1 237 1003.5 237.1V258.6C1005.1 258.6 1006.7 258.7 1008.5 258.6C1010.3 258.6 1012 258.6 1013.5 258.6V237.1Z" fill="#FFD467"/>
<path d="M1013.5 205C1011.8 204.9 1010.1 204.9 1008.5 204.9C1006.9 204.9 1005.1 204.9 1003.5 205V225.3C1005.1 225.3 1006.7 225.3 1008.5 225.3C1010.3 225.3 1012 225.3 1013.5 225.3V205Z" fill="#FFD467"/>
<path d="M1008.5 292.3C1013.9 292.3 1018.3 291.6 1021.8 290.7C1027.3 289.2 1030.8 286.9 1032.8 285.4C1041 279.2 1045.1 269.1 1045.8 257.9C1046.7 242.5 1040.7 225.2 1029.4 213.6C1029.3 213.5 1029.3 213.5 1029.2 213.4C1018.1 202.2 998.8 202.2 987.7 213.4C987.6 213.5 987.6 213.5 987.5 213.6C976.2 225.2 970.3 242.5 971.1 257.9C971.7 269 975.9 279.2 984.1 285.4C986.1 286.9 989.6 289.1 995.1 290.7C998.7 291.6 1003.1 292.3 1008.5 292.3Z" stroke="#333333" stroke-width="2" stroke-miterlimit="10" stroke-linecap="round"/>
<path d="M1020.7 304H1035.7C1041.7 304 1047.5 298.8 1046.8 292.8L1040.4 240.3C1039.9 236 1037.6 232.8 1033.3 232.8H1020.1C1015.4 232.8 1011.5 236.6 1011.5 241.4L1010.5 293.7C1010.4 299.3 1015 304 1020.7 304Z" fill="#666666" stroke="#333333" stroke-width="2" stroke-miterlimit="10" stroke-linecap="round"/>
<path d="M996.2 304H981.2C975.2 304 969.4 298.8 970.1 292.8L976.5 240.3C977 236 979.3 232.8 983.6 232.8H996.8C1001.5 232.8 1005.4 236.6 1005.4 241.4L1006.4 293.7C1006.6 299.3 1002 304 996.2 304Z" fill="#666666" stroke="#333333" stroke-width="2" stroke-miterlimit="10" stroke-linecap="round"/>
<path d="M968.7 241L1005.1 239.8C1005.3 239.8 1005.5 239.8 1005.7 239.8C1006.7 239.8 1007.6 239.9 1008.6 240.1C1015.5 241.4 1020.8 247.5 1020.8 254.9C1020.8 262.3 1015.5 268.4 1008.6 269.7C1008.4 269.7 1008.2 269.8 1008 269.8C1007.8 269.8 1007.5 269.9 1007.2 269.9C1006.4 270 1005.6 270 1004.8 270L967.7 268" fill="#666666"/>
<path d="M968.7 241L1005.1 239.8C1005.3 239.8 1005.5 239.8 1005.7 239.8C1006.7 239.8 1007.6 239.9 1008.6 240.1C1015.5 241.4 1020.8 247.5 1020.8 254.9C1020.8 262.3 1015.5 268.4 1008.6 269.7C1008.4 269.7 1008.2 269.8 1008 269.8C1007.8 269.8 1007.5 269.9 1007.2 269.9C1006.4 270 1005.6 270 1004.8 270L967.7 268" stroke="#333333" stroke-width="2" stroke-miterlimit="10" stroke-linecap="round"/>
<path d="M1048.4 241L1012 239.8C1011.8 239.8 1011.6 239.8 1011.4 239.8C1010.4 239.8 1009.5 239.9 1008.5 240.1C1001.6 241.4 996.3 247.5 996.3 254.9C996.3 262.3 1001.6 268.4 1008.5 269.7C1008.7 269.7 1008.9 269.8 1009.1 269.8C1009.3 269.8 1009.6 269.9 1009.9 269.9C1010.7 270 1011.5 270 1012.3 270L1049.4 268" fill="#666666"/>
<path d="M1048.4 241L1012 239.8C1011.8 239.8 1011.6 239.8 1011.4 239.8C1010.4 239.8 1009.5 239.9 1008.5 240.1C1001.6 241.4 996.3 247.5 996.3 254.9C996.3 262.3 1001.6 268.4 1008.5 269.7C1008.7 269.7 1008.9 269.8 1009.1 269.8C1009.3 269.8 1009.6 269.9 1009.9 269.9C1010.7 270 1011.5 270 1012.3 270L1049.4 268" stroke="#333333" stroke-width="2" stroke-miterlimit="10" stroke-linecap="round"/>
<path d="M1066.8 117.7V186.1C1066.8 193.9 1060.5 200.3 1052.6 200.3H964.4C956.6 200.3 950.2 193.9 950.2 186.1V117.7C950.2 109.9 956.5 103.5 964.4 103.5H1052.6C1060.4 103.5 1066.8 109.8 1066.8 117.7Z" fill="#AAAAAA" stroke="#333333" stroke-width="2" stroke-miterlimit="10"/>
<path d="M1054.5 126.1V177.7C1054.5 183.4 1049.5 188 1043.3 188H973.7C967.5 188 962.5 183.4 962.5 177.7V126.1C962.5 120.4 967.5 115.8 973.7 115.8H1043.3C1049.5 115.8 1054.5 120.4 1054.5 126.1Z" fill="white"/>
<path d="M1075.9 115.3V135.3C1075.9 136.9 1074.6 138.1 1073.1 138.1H1066.8V117.7C1066.8 109.9 1060.5 103.5 1052.6 103.5H964.4C956.6 103.5 950.2 109.8 950.2 117.7V138.1H944C942.4 138.1 941.2 136.8 941.2 135.3V115.3C941.2 103.6 950.7 94 962.5 94H1054.7C1066.3 94 1075.9 103.5 1075.9 115.3Z" fill="#EEEEEE" stroke="#333333" stroke-width="2" stroke-miterlimit="10"/>
<path d="M1035.2 209.1H981.8C979.3 209.1 977.4 207.1 977.4 204.7C977.4 202.2 979.4 200.3 981.8 200.3H1035.2C1037.7 200.3 1039.6 202.3 1039.6 204.7C1039.6 207.2 1037.6 209.1 1035.2 209.1Z" fill="#BF8CF3" stroke="#333333" stroke-width="2" stroke-miterlimit="10" stroke-linecap="round" stroke-linejoin="round"/>
<path d="M1070.2 138.1H1066.8V144.9H1070.2V138.1Z" fill="#BF8CF3" stroke="#333333" stroke-width="2" stroke-miterlimit="10" stroke-linecap="round" stroke-linejoin="round"/>
<path d="M1070.2 144.9H1066.8V151.7H1070.2V144.9Z" fill="#BF8CF3" stroke="#333333" stroke-width="2" stroke-miterlimit="10" stroke-linecap="round" stroke-linejoin="round"/>
<path d="M1070.2 151.7H1066.8V158.5H1070.2V151.7Z" fill="#BF8CF3" stroke="#333333" stroke-width="2" stroke-miterlimit="10" stroke-linecap="round" stroke-linejoin="round"/>
<path d="M950.2 138.1H946.8V144.9H950.2V138.1Z" fill="#BF8CF3" stroke="#333333" stroke-width="2" stroke-miterlimit="10" stroke-linecap="round" stroke-linejoin="round"/>
<path d="M950.2 144.9H946.8V151.7H950.2V144.9Z" fill="#BF8CF3" stroke="#333333" stroke-width="2" stroke-miterlimit="10" stroke-linecap="round" stroke-linejoin="round"/>
<path d="M950.2 151.7H946.8V158.5H950.2V151.7Z" fill="#BF8CF3" stroke="#333333" stroke-width="2" stroke-miterlimit="10" stroke-linecap="round" stroke-linejoin="round"/>
<path d="M993 156.7C996.7 156.7 999.7 153.7 999.7 150C999.7 146.3 996.7 143.3 993 143.3C989.3 143.3 986.3 146.3 986.3 150C986.3 153.7 989.3 156.7 993 156.7Z" fill="#333333"/>
<path d="M1024 156.7C1027.7 156.7 1030.7 153.7 1030.7 150C1030.7 146.3 1027.7 143.3 1024 143.3C1020.3 143.3 1017.3 146.3 1017.3 150C1017.3 153.7 1020.3 156.7 1024 156.7Z" fill="#333333"/>
<path d="M1001.8 167.6H1015.2" stroke="#333333" stroke-width="4" stroke-miterlimit="10" stroke-linecap="round"/>
<path d="M984.3 183C984.3 184.7 984 186.4 983.6 187.9H973.8C967.6 187.9 962.6 183.3 962.6 177.6V167C964.2 166.5 965.8 166.3 967.5 166.3C976.7 166.2 984.3 173.7 984.3 183Z" fill="#FFD467"/>
<path d="M1032.7 183C1032.7 184.7 1033 186.4 1033.4 187.9H1043.2C1049.4 187.9 1054.4 183.3 1054.4 177.6V167C1052.8 166.5 1051.2 166.3 1049.5 166.3C1040.2 166.2 1032.7 173.7 1032.7 183Z" fill="#FFD467"/>
<path d="M1054.5 126.1V177.7C1054.5 183.4 1049.5 188 1043.3 188H973.7C967.5 188 962.5 183.4 962.5 177.7V126.1C962.5 120.4 967.5 115.8 973.7 115.8H1043.3C1049.5 115.8 1054.5 120.4 1054.5 126.1Z" stroke="#333333" stroke-width="2" stroke-miterlimit="10"/>
<path d="M995.9 99.1C1002.91 99.1 1008.6 96.1003 1008.6 92.4C1008.6 88.6996 1002.91 85.7 995.9 85.7C988.886 85.7 983.2 88.6996 983.2 92.4C983.2 96.1003 988.886 99.1 995.9 99.1Z" fill="#FFD568" stroke="#333333" stroke-width="2" stroke-miterlimit="10" stroke-linecap="round"/>
<path d="M1021.2 99.1C1028.21 99.1 1033.9 96.1003 1033.9 92.4C1033.9 88.6996 1028.21 85.7 1021.2 85.7C1014.19 85.7 1008.5 88.6996 1008.5 92.4C1008.5 96.1003 1014.19 99.1 1021.2 99.1Z" fill="#FFD568" stroke="#333333" stroke-width="2" stroke-miterlimit="10" stroke-linecap="round"/>
<path d="M685.8 275.2L734.9 267.7C740.9 266.8 744.9 261 743.7 255C742.5 249.1 736.6 245.4 730.7 246.9L682.5 258.9C678.2 260 675.4 264.3 676.4 268.7C677.2 273 681.4 275.9 685.8 275.2Z" fill="#BF8CF3" stroke="#333333" stroke-width="2" stroke-miterlimit="10" stroke-linecap="round"/>
<path d="M734.3 255.5C735.6 255.9 736.9 255.3 737.3 254.1L746.1 228.4C746.5 227.2 745.9 225.9 744.7 225.5H744.6C743.4 225.1 742.1 225.7 741.7 226.9L732.9 252.6C732.5 253.8 733.1 255.1 734.3 255.5Z" fill="#E3B17A" stroke="#333333" stroke-width="2" stroke-miterlimit="10" stroke-linecap="round" stroke-linejoin="round"/>
<path d="M733 202.4C733.5 198.1 736.1 194.6 739.6 192.7C739.4 191.8 739.4 190.9 739.5 190C740 185.6 744.1 182.5 748.5 183C750.2 183.2 751.8 184 752.9 185.1C755.4 183.5 758.4 182.8 761.5 183.1C768.6 184 773.6 190.4 772.8 197.5C772.5 199.6 771.8 201.4 770.7 203.1C773.4 205.8 774.9 209.7 774.4 213.8C773.8 218.9 770.3 222.9 765.7 224.5C765.9 225.2 766 226 765.9 226.8C765.5 230.1 762.5 232.5 759.1 232.1C757.3 231.9 755.8 230.9 754.9 229.6C752.2 231.9 748.6 233.1 744.9 232.6C737.8 231.7 732.8 225.3 733.6 218.2C733.9 216 734.7 214 735.9 212.3C733.7 209.5 732.6 206 733 202.4Z" fill="white" stroke="#333333" stroke-width="2" stroke-miterlimit="10" stroke-linecap="round"/>
<path d="M747.5 191.1C740.4 190.2 734 195.3 733.1 202.4C732.2 209.5 737.3 215.9 744.4 216.8" stroke="#333333" stroke-width="2" stroke-miterlimit="10" stroke-linecap="round"/>
<path d="M759.9 224.9C767 225.8 773.4 220.7 774.3 213.6C775.2 206.5 770.1 200.1 763 199.2" stroke="#333333" stroke-width="2" stroke-miterlimit="10" stroke-linecap="round"/>
<path d="M753.8 225.2C753.4 228.5 755.8 231.6 759.1 232C762.4 232.4 765.5 230 765.9 226.7" stroke="#333333" stroke-width="2" stroke-miterlimit="10" stroke-linecap="round"/>
<path d="M755.5 191.9C756 187.5 752.9 183.5 748.5 182.9C744.1 182.4 740.1 185.5 739.5 189.9" stroke="#333333" stroke-width="2" stroke-miterlimit="10" stroke-linecap="round"/>
<path d="M724.9 258.8L738.4 260.8L724.3 263.2H695.8L724.9 258.8Z" fill="#E3B17A" stroke="#333333" stroke-width="2" stroke-miterlimit="10" stroke-linecap="round" stroke-linejoin="round"/>
<path d="M683.6 291.6L703.3 293.7C706.6 294.1 709 295.8 709 299.1V308.4C709 312 706.1 314.9 702.5 314.9L662.6 315.9" fill="#BF8CF3"/>
<path d="M683.6 291.6L703.3 293.7C706.6 294.1 709 295.8 709 299.1V308.4C709 312 706.1 314.9 702.5 314.9L662.6 315.9" stroke="#333333" stroke-width="2" stroke-miterlimit="10" stroke-linecap="round"/>
<path d="M666.8 321.3C670.6 321.3 673.7 320.8 676.2 320.2C680.1 319.1 682.6 317.6 684 316.5C689.8 312.1 692.7 305 693.1 297.1C693.7 286.2 689.5 274 681.6 265.8C681.5 265.7 681.5 265.7 681.4 265.6C673.6 257.7 659.9 257.7 652.1 265.6C652 265.7 652 265.7 651.9 265.8C643.9 274 639.8 286.2 640.4 297.1C640.8 305 643.8 312.1 649.5 316.5C650.9 317.6 653.4 319.1 657.2 320.2C659.8 320.9 662.9 321.3 666.8 321.3Z" fill="#BF8CF3" stroke="#333333" stroke-width="2" stroke-miterlimit="10" stroke-linecap="round"/>
<path d="M686.6 297.2L706.3 299.3C709.6 299.7 712 301.4 712 304.7V314C712 317.6 709.1 320.5 705.5 320.5L665.6 321.5" fill="#BF8CF3"/>
<path d="M686.6 297.2L706.3 299.3C709.6 299.7 712 301.4 712 304.7V314C712 317.6 709.1 320.5 705.5 320.5L665.6 321.5" stroke="#333333" stroke-width="2" stroke-miterlimit="10" stroke-linecap="round"/>
<path d="M661.2 278.8L648 315.9C646 321.6 639.5 324.5 633.9 322.1C628.3 319.8 625.8 313.3 628.4 307.8L649.3 262.7C651.2 258.6 655.9 256.8 660.1 258.5" fill="#BF8CF3"/>
<path d="M661.2 278.8L648 315.9C646 321.6 639.5 324.5 633.9 322.1C628.3 319.8 625.8 313.3 628.4 307.8L649.3 262.7C651.2 258.6 655.9 256.8 660.1 258.5" stroke="#333333" stroke-width="2" stroke-miterlimit="10" stroke-linecap="round"/>
<path d="M642.9 183.5L724.3 190.3V263.2H642.9V183.5Z" fill="#E3B17A" stroke="#333333" stroke-width="2" stroke-miterlimit="10" stroke-linecap="round" stroke-linejoin="round"/>
<path d="M617.9 258.8L642.9 263.2V183.5L617.9 200.9V258.8Z" fill="#E3B17A" stroke="#333333" stroke-width="2" stroke-miterlimit="10" stroke-linecap="round" stroke-linejoin="round"/>
<path d="M617.9 258.8L602.3 260.7L618.3 265.3L642.9 263.2L617.9 258.8Z" fill="#E3B17A" stroke="#333333" stroke-width="2" stroke-miterlimit="10" stroke-linecap="round" stroke-linejoin="round"/>
<path d="M671.1 243.6H697.1C699.5 243.6 701.5 245.6 701.5 248V248.6C701.5 251 699.5 253 697.1 253H671.1C668.7 253 666.7 251 666.7 248.6V248C666.8 245.5 668.7 243.6 671.1 243.6Z" fill="#BF8CF3" stroke="#333333" stroke-width="2" stroke-miterlimit="10" stroke-linecap="round"/>
<path d="M650.8 221L654.8 224.7L649.9 227.3L651.8 229.1L648.1 231.7L720.6 238.4L713.7 233.4L718 230.4L714.8 228.4L720.3 225L713.3 221.7L715.9 219.1L650.6 213C652.3 214.8 654.2 216.9 654.2 216.9L650.8 221Z" fill="#FFD467" stroke="#333333" stroke-width="2" stroke-miterlimit="10" stroke-linecap="round" stroke-linejoin="round"/>
<path d="M675.5 247.7C677.3 248.4 680.5 249.4 684.4 249.4C688.1 249.4 691.1 248.5 692.9 247.8" stroke="#333333" stroke-width="2" stroke-miterlimit="10" stroke-linecap="round" stroke-linejoin="round"/>
<path d="M79.4 192.1L142.9 222.6C150.7 226.3 153.7 235.9 149.6 243.4C145.5 250.9 136 253.5 128.7 249.1L68.3 212.9C62.9 209.6 60.9999 202.6 63.9999 197.1C66.9999 191.6 73.7999 189.4 79.4 192.1Z" fill="white" stroke="#333333" stroke-width="2" stroke-miterlimit="10" stroke-linecap="round"/>
<path d="M82.7 282.8L74.8 246.3L19.7 264.3C15.3 265.8 12.4 268.9 13.4 273.5L16.2 286.3C17.3 291.3 22.2 294.4 27.1 293.3L82.7 282.8Z" fill="#FFD568" stroke="#333333" stroke-width="2" stroke-miterlimit="10" stroke-linecap="round"/>
<path d="M43.8 290.1L27 293.3C22 294.4 17.1 291.2 16.1 286.2L13.3 273.4C12.3 268.9 15.2 265.7 19.6 264.2L37 258.5L43.8 290.1Z" fill="white" stroke="#333333" stroke-width="2" stroke-miterlimit="10" stroke-linecap="round"/>
<path d="M28.1 293.1L35.3 291.8L28.7 261.3L21.7 263.6L28.1 293.1Z" fill="#BF8CF3" stroke="#333333" stroke-width="2" stroke-miterlimit="10" stroke-linecap="round" stroke-linejoin="round"/>
<path d="M112 290.7L96.5 273.9C100.2 270 103.1 265.1 105.1 259.6C110.5 245.2 110.1 226.8 102.8 212.4C102.8 212.3 102.7 212.2 102.7 212.1C95.5 198.1 77.1 192.3 63.1 199.6C63 199.6 62.9 199.7 62.8 199.7C48.5 207.3 37.7 222.1 33.9 237C31.1 247.8 32 258.7 38 267.1C39.4 269.1 42.1 272.3 46.9 275.4C47.4 275.7 47.9 276 48.4 276.3L91.5 312.2C95.3 315.5 101.1 315.2 104.5 311.3L113.1 301.4C116.1 298.3 115.1 294.2 112 290.7Z" fill="#FFD568" stroke="#333333" stroke-width="2" stroke-miterlimit="10" stroke-linecap="round"/>
<path d="M101.4 210C98.3 205.1 93.7 201.4 88.5 199.1C86.9 199.5 85.3 199.9 83.8 200.6C83.9 206.8 89 211.8 95.2 211.8C97.5 211.8 99.6 211.1 101.4 210Z" fill="white" stroke="#333333" stroke-width="2" stroke-miterlimit="10" stroke-linecap="round"/>
<path d="M79.6 204.2L25.8 249.7C19.2 255.3 9.29998 254.2 4.09998 247.3C-1.00002 240.5 0.499978 230.8 7.49998 225.9L65.2 185.6C70.4 182 77.6 183.1 81.4 188.2C85.1 193.1 84.4 200.1 79.6 204.2Z" fill="white" stroke="#333333" stroke-width="2" stroke-miterlimit="10" stroke-linecap="round"/>
<path d="M85.4 206.3C117.598 206.3 143.7 180.198 143.7 148C143.7 115.802 117.598 89.7 85.4 89.7C53.2018 89.7 27.1 115.802 27.1 148C27.1 180.198 53.2018 206.3 85.4 206.3Z" fill="white" stroke="#333333" stroke-width="2" stroke-miterlimit="10" stroke-linecap="round"/>
<path d="M158.5 107.5C158.5 118.5 154.3 128.4 147.4 135.9H32.5C16.8 135.9 4.09998 123.2 4.09998 107.5C4.09998 94.5 12.9 83.5 24.8 80.2C24.8 79.4 24.7 78.7 24.7 77.9C24.8 54.7 43.5 36 66.6 36C85.9 36 102.1 49 107 66.8C110.1 66.1 113.4 65.7 116.7 65.7C139.8 65.6 158.5 84.4 158.5 107.5Z" fill="white" stroke="#333333" stroke-width="2" stroke-miterlimit="10" stroke-linecap="round"/>
<path d="M141.5 126.8H29.2999C24.2999 126.8 20.2 130.9 20.2 135.9C20.2 140.9 24.2999 145 29.2999 145H141.5C146.5 145 150.6 140.9 150.6 135.9C150.6 130.8 146.5 126.8 141.5 126.8Z" fill="#BF8CF3" stroke="#333333" stroke-width="2" stroke-miterlimit="10" stroke-linecap="round" stroke-linejoin="round"/>
<path d="M107 66.8C107.9 70.2 108.4 73.9 108.4 77.6" stroke="#333333" stroke-width="2" stroke-miterlimit="10" stroke-linecap="round"/>
<path d="M68.2 121.8C64.1 129.3 56.1 134.3 47 134.3C33.6 134.3 22.8 123.5 22.8 110.1C22.8 96.6999 33.7 85.8999 47 85.8999" fill="white"/>
<path d="M68.2 121.8C64.1 129.3 56.1 134.3 47 134.3C33.6 134.3 22.8 123.5 22.8 110.1C22.8 96.6999 33.7 85.8999 47 85.8999" stroke="#333333" stroke-width="2" stroke-miterlimit="10" stroke-linecap="round"/>
<path d="M125.8 168.8C125.8 174.1 129.2 178.6 133.9 180.2C136.3 176.6 138.2 172.8 139.8 168.8H125.8Z" fill="#FC6E6E" stroke="#333333" stroke-width="2" stroke-miterlimit="10" stroke-linecap="round" stroke-linejoin="round"/>
<path d="M87.2 85.5C93.4 80.6 101.1 77.7 109.6 77.7C125.3 77.7 138.7 87.7 143.7 101.7" stroke="#333333" stroke-width="2" stroke-miterlimit="10" stroke-linecap="round"/>
<path d="M125.8 161.4C129.5 161.4 132.5 158.4 132.5 154.7C132.5 151 129.5 148 125.8 148C122.1 148 119.1 151 119.1 154.7C119.1 158.4 122.1 161.4 125.8 161.4Z" fill="#333333"/>
<path d="M111.7 181.2C117.112 181.2 121.5 176.812 121.5 171.4C121.5 165.988 117.112 161.6 111.7 161.6C106.288 161.6 101.9 165.988 101.9 171.4C101.9 176.812 106.288 181.2 111.7 181.2Z" fill="#FFD568"/>
<path d="M78.3 301.6L99.6 277.3L112 290.7C115.1 294.2 116.1 298.3 113 301.8L104.4 311.7C101.1 315.5 95.2 315.9 91.4 312.6L78.3 301.6Z" fill="white" stroke="#333333" stroke-width="2" stroke-miterlimit="10" stroke-linecap="round"/>
<path d="M110.5 289.2L105.5 283.8L85 307.2L90.6 311.9L110.5 289.2Z" fill="#BF8CF3" stroke="#333333" stroke-width="2" stroke-miterlimit="10" stroke-linecap="round" stroke-linejoin="round"/>
<path d="M96.2 273.7L89.9 266.8" stroke="#333333" stroke-width="2" stroke-miterlimit="10" stroke-linecap="round"/>
</g>
<defs>
<linearGradient id="paint0_linear" x1="387.639" y1="219.1" x2="433.732" y2="164.173" gradientUnits="userSpaceOnUse">
<stop stop-color="white"/>
<stop offset="0.5" stop-color="#FFE885"/>
<stop offset="1" stop-color="white"/>
</linearGradient>
<linearGradient id="paint1_linear" x1="284.544" y1="220.008" x2="356.25" y2="220.008" gradientUnits="userSpaceOnUse">
<stop stop-color="white"/>
<stop offset="0.5" stop-color="#FFE885"/>
<stop offset="1" stop-color="white"/>
</linearGradient>
<radialGradient id="paint2_radial" cx="0" cy="0" r="1" gradientUnits="userSpaceOnUse" gradientTransform="translate(360.864 223.84) scale(40.6701)">
<stop stop-color="#FFE885"/>
<stop offset="0.287" stop-color="#FFE888"/>
<stop offset="0.4597" stop-color="#FFEA90"/>
<stop offset="0.6021" stop-color="#FFED9E"/>
<stop offset="0.728" stop-color="#FFF1B2"/>
<stop offset="0.843" stop-color="#FFF6CD"/>
<stop offset="0.9486" stop-color="#FFFCED"/>
<stop offset="1" stop-color="white"/>
</radialGradient>
<radialGradient id="paint3_radial" cx="0" cy="0" r="1" gradientUnits="userSpaceOnUse" gradientTransform="translate(327.372 255.424) scale(27.5297)">
<stop stop-color="#FFE885"/>
<stop offset="0.287" stop-color="#FFE888"/>
<stop offset="0.4597" stop-color="#FFEA90"/>
<stop offset="0.6021" stop-color="#FFED9E"/>
<stop offset="0.728" stop-color="#FFF1B2"/>
<stop offset="0.843" stop-color="#FFF6CD"/>
<stop offset="0.9486" stop-color="#FFFCED"/>
<stop offset="1" stop-color="white"/>
</radialGradient>
<radialGradient id="paint4_radial" cx="0" cy="0" r="1" gradientUnits="userSpaceOnUse" gradientTransform="translate(308.486 260.648) scale(20.1014)">
<stop stop-color="#FFE885"/>
<stop offset="0.287" stop-color="#FFE888"/>
<stop offset="0.4597" stop-color="#FFEA90"/>
<stop offset="0.6021" stop-color="#FFED9E"/>
<stop offset="0.728" stop-color="#FFF1B2"/>
<stop offset="0.843" stop-color="#FFF6CD"/>
<stop offset="0.9486" stop-color="#FFFCED"/>
<stop offset="1" stop-color="white"/>
</radialGradient>
<radialGradient id="paint5_radial" cx="0" cy="0" r="1" gradientUnits="userSpaceOnUse" gradientTransform="translate(394.357 255.424) scale(27.5297)">
<stop stop-color="#FFE885"/>
<stop offset="0.287" stop-color="#FFE888"/>
<stop offset="0.4597" stop-color="#FFEA90"/>
<stop offset="0.6021" stop-color="#FFED9E"/>
<stop offset="0.728" stop-color="#FFF1B2"/>
<stop offset="0.843" stop-color="#FFF6CD"/>
<stop offset="0.9486" stop-color="#FFFCED"/>
<stop offset="1" stop-color="white"/>
</radialGradient>
<radialGradient id="paint6_radial" cx="0" cy="0" r="1" gradientUnits="userSpaceOnUse" gradientTransform="translate(413.243 260.648) scale(20.1014)">
<stop stop-color="#FFE885"/>
<stop offset="0.287" stop-color="#FFE888"/>
<stop offset="0.4597" stop-color="#FFEA90"/>
<stop offset="0.6021" stop-color="#FFED9E"/>
<stop offset="0.728" stop-color="#FFF1B2"/>
<stop offset="0.843" stop-color="#FFF6CD"/>
<stop offset="0.9486" stop-color="#FFFCED"/>
<stop offset="1" stop-color="white"/>
</radialGradient>
<radialGradient id="paint7_radial" cx="0" cy="0" r="1" gradientUnits="userSpaceOnUse" gradientTransform="translate(360.865 129.812) scale(58.2766)">
<stop stop-color="#FFE885"/>
<stop offset="0.287" stop-color="#FFE888"/>
<stop offset="0.4597" stop-color="#FFEA90"/>
<stop offset="0.6021" stop-color="#FFED9E"/>
<stop offset="0.728" stop-color="#FFF1B2"/>
<stop offset="0.843" stop-color="#FFF6CD"/>
<stop offset="0.9486" stop-color="#FFFCED"/>
<stop offset="1" stop-color="white"/>
</radialGradient>
<clipPath id="clip0">
<rect width="1205.8" height="324" fill="white"/>
</clipPath>
</defs>
</svg>
