<svg width="179" height="80" viewBox="0 0 179 80" fill="none" xmlns="http://www.w3.org/2000/svg">
<path d="M154.979 28.0315H125.703L120.892 0H150.168L151.704 8.92388H159.176L157.641 0H168.491L173.302 28.0315H162.452L160.916 19.3176H153.444L154.979 28.0315ZM141.058 9.13386H133.176L134.814 18.8976H142.696L141.058 9.13386Z" fill="#5826E8"/>
<path d="M163.68 30.9707H138.294C131.64 30.9707 127.136 36.535 128.365 43.3592C129.491 50.1833 135.939 55.7476 142.593 55.7476H167.98C174.633 55.7476 179.137 50.1833 177.909 43.3592C176.681 36.535 170.334 30.9707 163.68 30.9707ZM164.499 47.0337H143.105C141.16 47.0337 139.215 45.3539 138.908 43.3592C138.601 41.3644 139.932 39.6846 141.877 39.6846H163.271C165.216 39.6846 167.161 41.3644 167.468 43.3592C167.775 45.3539 166.444 47.0337 164.499 47.0337Z" fill="#5826E8"/>
<path d="M71.655 44.3045L73.3952 54.2782H25.7958L24.0556 44.3045H42.6859L40.6386 32.126H22.0084L16.4807 0H64.0801L65.8202 9.97375H28.9691L31.1188 22.2572H67.9699L69.7101 32.126H51.3869L53.4341 44.3045H71.655Z" fill="#5826E8"/>
<path d="M94.073 23.0971L113.625 45.4593L106.254 51.6535L92.5376 35.4856C91.2068 40.7349 89.1594 44.7244 86.2932 47.4541C83.427 50.2887 80.049 51.6535 75.9545 51.7585L74.0095 40.7349C76.7734 40.4199 78.923 38.5302 80.5609 35.0656C82.1987 31.706 83.12 26.9816 83.3248 21.1024C83.5295 15.2231 83.0177 8.50394 81.7893 1.04987L92.5376 1.46982C93.7659 9.23884 94.3801 16.4829 94.073 23.0971ZM117.719 0L127.034 54.2782H116.593L107.278 0H117.719Z" fill="#5826E8"/>
<path d="M0 0L13.8191 80H24.465L10.6459 0H0Z" fill="#5826E8"/>
</svg>
