<svg width="875" height="383" viewBox="0 0 875 383" fill="none" xmlns="http://www.w3.org/2000/svg">
<path d="M760.989 134.201H617.235L593.611 0H737.364L744.904 42.7231H781.596L774.057 0H827.336L850.959 134.201H797.68L790.141 92.4829H753.449L760.989 134.201ZM692.63 43.7283H653.927L661.969 90.4724H700.673L692.63 43.7283Z" fill="#666666"/>
<path d="M803.712 148.274H679.058C646.387 148.274 624.271 174.914 630.303 207.584C635.832 240.255 667.497 266.894 700.169 266.894H824.823C857.494 266.894 879.61 240.255 873.578 207.584C867.546 174.914 836.384 148.274 803.712 148.274ZM807.733 225.176H702.682C693.132 225.176 683.582 217.134 682.074 207.584C680.566 198.034 687.1 189.992 696.65 189.992H801.702C811.252 189.992 820.802 198.034 822.309 207.584C823.817 217.134 817.283 225.176 807.733 225.176Z" fill="#666666"/>
<path d="M351.844 212.108L360.389 259.857H126.663L118.119 212.108H209.598L199.546 153.803H108.066L80.9238 0H314.649L323.194 47.7493H142.245L152.801 106.556H333.749L342.294 153.803H252.322L262.375 212.108H351.844Z" fill="#666666"/>
<path d="M461.922 110.577L557.925 217.636L521.735 247.291L454.383 169.887C447.848 195.018 437.795 214.118 423.721 227.186C409.648 240.757 393.061 247.291 372.955 247.794L363.405 195.018C376.976 193.511 387.532 184.463 395.574 167.877C403.616 151.793 408.14 129.175 409.146 101.028C410.151 72.8806 407.638 40.7126 401.606 5.02625L454.383 7.03675C460.414 44.231 463.43 78.9121 461.922 110.577ZM578.031 0L623.771 259.857H572.502L526.762 0H578.031Z" fill="#666666"/>
<path d="M0 0L67.8554 383H120.129L52.2739 0H0Z" fill="#666666"/>
</svg>
