<svg width="158" height="102" viewBox="0 0 158 102" fill="none" xmlns="http://www.w3.org/2000/svg">
<path d="M83.61 26.5825L85.6549 37.2116H79.0549L81.025 47.4518H69.871L64.048 17.1849H75.202L77.01 26.5825H83.61ZM66.5203 43.7576C65.1847 44.3625 63.3401 44.8377 60.9866 45.1834C58.6331 45.5291 56.1144 45.7019 53.4304 45.7019H29.0104L23.6487 17.833H58.2987L60.0319 26.8418H36.6019L38.5097 36.7579H52.1717C54.7677 36.7579 57.1806 36.6067 59.4104 36.3042C61.6759 35.9586 63.4806 35.5049 64.8245 34.9432L66.5203 43.7576ZM45.5734 63.525H84.7114L86.4445 72.5338H36.0865L31.6351 49.3961H81.3991L83.1323 58.4049H44.5883L45.5734 63.525ZM147.621 72.5338H136.467L125.818 17.1849H136.972L147.621 72.5338ZM120.236 33.4525C121.666 40.8842 121.567 47.3438 119.938 52.8312C118.354 58.3185 115.407 62.5529 111.096 65.5342C106.777 68.4723 101.34 69.9414 94.7841 69.9414L92.7891 59.5715C99.5128 59.5283 104.256 57.1951 107.018 52.5719C109.781 47.9487 110.381 41.5756 108.818 33.4525L107.858 28.462H86.804L84.8837 18.4811H117.356L120.236 33.4525Z" fill="#FFCD4C"/>
<path d="M12.1739 18H0L15.8261 102H28L12.1739 18Z" fill="#FFCD4C"/>
</svg>
