<svg width="125" height="80" viewBox="0 0 125 80" fill="none" xmlns="http://www.w3.org/2000/svg">
<path d="M0 0L13.8192 80H24.465L10.6459 0H0Z" fill="#5826E8"/>
<path d="M101.34 28.0315H71.9616L67.1505 0H96.4267L97.9621 8.92388H105.435L103.899 0H114.75L119.561 28.0315H108.71L107.175 19.3176H99.7023L101.34 28.0315ZM87.3163 9.13386H79.4342L81.072 18.8976H89.0564L87.3163 9.13386Z" fill="#5826E8"/>
<path d="M109.939 30.9709H84.5524C77.8987 30.9709 73.3947 36.5353 74.6231 43.3594C75.7491 50.1835 82.198 55.7479 88.8517 55.7479H114.238C120.892 55.7479 125.396 50.1835 124.167 43.3594C122.939 36.5353 116.592 30.9709 109.939 30.9709ZM110.758 47.0339H89.4659C87.521 47.0339 85.576 45.3542 85.269 43.3594C84.9619 41.3646 86.2926 39.6849 88.2375 39.6849H109.529C111.474 39.6849 113.419 41.3646 113.726 43.3594C114.136 45.3542 112.805 47.0339 110.758 47.0339Z" fill="#5826E8"/>
<path d="M50.6703 29.8163L51.0797 32.231H69.6076L71.962 46.1942H34.8038L35.1109 48.084H72.3715L73.4975 54.6982H26.0005L23.5438 40.6299H60.8043L60.4972 38.7402H23.2367L22.1107 32.126H40.6386L40.2291 29.7113H21.7012L20.3705 22.0472H67.8675L69.1982 29.8163H50.6703ZM67.458 20.1575H20.0634L16.583 0H26.9218L27.4336 3.04462H54.253L53.7412 0H64.08L67.458 20.1575ZM55.8908 12.7034L55.379 9.97375H28.5596L29.0714 12.7034H55.8908Z" fill="#5826E8"/>
</svg>
