<svg width="611" height="383" viewBox="0 0 611 383" fill="none" xmlns="http://www.w3.org/2000/svg">
<path d="M0 0L67.8556 383H120.13L52.274 0H0Z" fill="#FC6E6E"/>
<path d="M497.606 134.201H353.35L329.727 0H473.48L481.019 42.7231H517.712L510.172 0H563.451L587.075 134.201H533.796L526.257 92.4829H489.564L497.606 134.201ZM428.746 43.7283H390.043L398.085 90.4724H437.29L428.746 43.7283Z" fill="#FC6E6E"/>
<path d="M539.828 148.274H415.174C382.503 148.274 360.387 174.914 366.419 207.584C371.948 240.255 403.614 266.894 436.285 266.894H560.938C593.61 266.894 615.726 240.255 609.694 207.584C603.662 174.914 572.499 148.274 539.828 148.274ZM543.849 225.176H439.301C429.751 225.176 420.201 217.134 418.693 207.584C417.185 198.034 423.719 189.992 433.269 189.992H537.817C547.367 189.992 556.917 198.034 558.425 207.584C560.436 217.134 553.902 225.176 543.849 225.176Z" fill="#FC6E6E"/>
<path d="M248.805 142.745L250.815 154.306H341.792L353.353 221.155H170.897L172.405 230.202H355.363L360.892 261.867H127.67L115.607 194.516H298.566L297.058 185.469H114.099L108.57 153.803H199.547L197.536 142.243H106.559L100.025 105.551H333.247L339.782 142.745H248.805ZM331.237 96.5039H98.5173L81.4277 0H132.194L134.707 14.5761H266.397L263.884 0H314.65L331.237 96.5039ZM274.439 60.8176L271.926 47.7493H140.236L142.749 60.8176H274.439Z" fill="#FC6E6E"/>
</svg>
