<svg width="978" height="298" viewBox="0 0 978 298" fill="none" xmlns="http://www.w3.org/2000/svg">
<rect width="339.684" height="48" transform="matrix(1 0 0.188924 0.981992 54.9891 144)" fill="#5826E8"/>
<rect width="693.837" height="48" transform="matrix(1 0 0.188924 0.981992 34 38)" fill="#5826E8"/>
<path d="M121.1 24.1H112.8L115.4 38.6H101L99.7 31.4L93 38.6L82.5 29.4C81.1 32.3 79.1 34.6 76.7 36.3C74.2 38 71.2 39 67.7 39.2L57.8 30C56.3 32.7 54.3 34.9 51.9 36.5C49.5 38.1 46.6 39.1 43.3 39.3L41.2 27.5C43.4 27 45.1 25.5 46.2 23C47.3 20.5 47.7 17.4 47.4 13.7H40.4L38.4 2.1H63.1L65.1 13.7H60.7C60.8 15.4 60.8 17.2 60.7 19.3L68.4 26.2C69.7 25.1 70.7 23.5 71.2 21.3C71.8 19.1 72 16.6 71.7 13.8H67.8L65.8 2.2H90.6L92.6 13.8H85C85.1 15.5 85.1 17.1 85 18.5L99.4 30.3L94.5 1.3H108.9L110.6 10.7H118.9L121.1 24.1ZM66.6 65.7H86.2L88 75.7H55.1L51.3 54.1H70.3L69.8 51.2H50.6L48.8 41.2H81.2L85 62.8H66L66.6 65.7ZM103.1 41.2H115.9L122 75.7H90.6L84.5 41.2H97.3L98.6 48.3H104.4L103.1 41.2ZM107.4 65.7L106.1 58.1H100.3L101.6 65.7H107.4Z" fill="#FFCD4C"/>
<path d="M157.2 35.1L183.8 63.2L173.7 71.9L155 51.5C153.1 58.1 150.2 63.2 146.2 66.8C142.2 70.4 137.4 72.2 131.8 72.2L129.2 57.4C132.7 57 135.6 55.1 137.8 51.6C140 48.1 141.4 43.4 141.9 37.4C142.5 31.4 142.1 24.4 140.9 16.6H124.1L121.7 3H169.3L171.7 16.5H155.8C156.7 23.2 157.2 29.4 157.2 35.1ZM190 1.3L203.1 75.7H188.4L175.2 1.3H190Z" fill="#FFCD4C"/>
<path d="M252.2 44.5H206.8L199.3 2.1H244.7L252.2 44.5ZM227.4 62.5H279.2L281.5 75.7H214.7L210.1 49.6H225.1L227.4 62.5ZM232.3 14.6H216L219.1 32H235.4L232.3 14.6ZM278.7 16.1L281.2 30.4H272.5L277.1 56.4H262.4L252.7 1.3H267.4L270 16.1H278.7Z" fill="#FFCD4C"/>
<path d="M317.6 38.9C313.8 37.2 310.7 34.9 308.3 31.9C305.8 28.9 304.3 25.5 303.6 21.7C302.9 17.9 303.3 14.5 304.7 11.5C306.1 8.5 308.4 6.2 311.6 4.5C314.8 2.8 318.5 2 323 2C327.4 2 331.5 2.8 335.2 4.5C338.9 6.2 342 8.5 344.5 11.5C347 14.5 348.5 17.9 349.2 21.7C349.9 25.5 349.5 28.9 348.1 31.9C346.7 34.9 344.4 37.2 341.3 38.9C338.2 40.6 334.4 41.4 330 41.4C325.4 41.4 321.4 40.6 317.6 38.9ZM338.7 45.5C342.5 45.5 346.1 45.3 349.5 44.8C352.9 44.4 355.5 43.7 357.5 42.8L359.8 56C356 57.8 349.6 58.7 340.8 58.7H340.2L343.2 75.7H328.5L325.5 58.7H307.2L304.9 45.5H338.7ZM319 15.9C317.6 17.4 317.2 19.3 317.6 21.7C318 24 319.2 25.9 321.1 27.5C323 29 325.2 29.8 327.9 29.8C330.6 29.8 332.5 29 333.8 27.5C335.1 26 335.6 24.1 335.2 21.7C334.8 19.4 333.7 17.5 331.8 15.9C329.9 14.4 327.7 13.6 325.1 13.6C322.5 13.6 320.4 14.4 319 15.9ZM369.2 1.3L382.3 75.7H367.6L354.4 1.3H369.2Z" fill="#FFCD4C"/>
<path d="M406.4 59.4C409.4 59.4 412.5 59.2 415.6 58.7C418.7 58.2 421.3 57.6 423.3 56.8L425.5 69.5C423.6 70.4 420.9 71 417.5 71.5C414.1 72 410.7 72.2 407.3 72.2H390.2L378.1 3H410.6L412.9 15.9H394.6L402.3 59.3H406.4V59.4ZM450.6 1.3L463.7 75.7H449.9L444.1 42.6H437.9L443.5 74.4H429.9L417.1 1.7H430.7L435.5 28.7H441.7L436.9 1.3H450.6Z" fill="#FFCD4C"/>
<path d="M509.1 17.9H458.2L456.2 6.4H474.2L473 0H488L489.1 6.4H507.1L509.1 17.9ZM477.6 48.9C473.9 47.7 470.9 46 468.4 43.7C466 41.4 464.4 38.6 463.9 35.3C463.3 32 463.9 29.3 465.5 26.9C467.1 24.6 469.6 22.8 472.8 21.7C476.1 20.5 479.8 20 484 20C488.2 20 492.2 20.6 495.9 21.7C499.6 22.9 502.6 24.6 505.1 26.9C507.5 29.2 509.1 32 509.6 35.3C510.2 38.6 509.6 41.3 508 43.7C506.4 46 503.9 47.8 500.7 48.9C497.4 50.1 493.7 50.6 489.5 50.6C485.2 50.6 481.2 50.1 477.6 48.9ZM486 62.9H537.8L540.1 75.7H473.3L469.3 52.8H484.3L486 62.9ZM479.7 31.9C478.2 32.8 477.6 33.9 477.9 35.3C478.1 36.6 479.1 37.8 480.9 38.7C482.7 39.6 484.9 40.1 487.5 40.1C490.1 40.1 492.2 39.7 493.6 38.7C495.1 37.8 495.7 36.7 495.4 35.3C495.2 34 494.2 32.8 492.4 31.9C490.6 31 488.4 30.5 485.8 30.5C483.2 30.5 481.2 31 479.7 31.9ZM537.6 18.6L540.1 32.9H531.4L535.6 56.9H520.9L511.1 1.4H525.8L528.8 18.7H537.6V18.6Z" fill="#FFCD4C"/>
<path d="M594.3 32.9L621.8 63.6L611.4 72.1L592 49.9C590.1 57 587.2 62.5 583.2 66.4C579.2 70.2 574.4 72.2 568.7 72.2L566 57.1C569.9 56.6 572.9 54.1 575.2 49.4C577.5 44.7 578.7 38.3 579.1 30.3C579.4 22.2 578.7 13.1 576.9 2.8L592 3.3C593.8 14 594.6 23.9 594.3 32.9ZM627.5 1.3L640.6 75.7H625.9L612.7 1.3H627.5Z" fill="#FFCD4C"/>
<path d="M680.3 31.8C677.4 36.6 672.8 40.1 666.5 42.5C660.3 44.9 652.8 46 644.1 46L641.8 33C647.5 32.9 652.5 32.2 656.7 30.9C660.9 29.5 664 27.6 666.1 25.2C668.1 22.8 668.9 19.9 668.3 16.6L668 14.9H638.6L636.4 2.2H680.8L682.9 14.1C684.1 21.1 683.3 27 680.3 31.8ZM664.9 62.5H716.7L719 75.7H652.2L647.7 49.9H662.7L664.9 62.5ZM716.2 16.1L718.7 30.4H710L714.6 56.4H699.9L690.2 1.3H704.9L707.5 16.1H716.2Z" fill="#FFCD4C"/>
<path d="M796.8 41.3H721.5L719.6 30.6H794.9L796.8 41.3ZM777.2 3.40001C783.6 5.60001 787.3 9.20001 788.2 14.1C789.1 19 786.7 22.6 781 24.8C775.3 27 767.3 28.1 756.8 28.1C746.3 28.1 737.9 27 731.5 24.8C725.1 22.6 721.4 19 720.5 14.1C719.6 9.20001 722 5.60001 727.7 3.40001C733.4 1.20001 741.4 0.100006 751.9 0.100006C762.4 0.100006 770.8 1.20001 777.2 3.40001ZM796.4 63.6H744.3L744.7 66.1H797.6L799.3 75.7H732L728.5 56H780.6L780.2 53.5H727.9L726.3 44.3H793L796.4 63.6ZM740.5 11.5C737.4 12.1 736 13 736.2 14.1C736.6 16.4 742.9 17.6 755 17.6C767.1 17.6 773 16.4 772.6 14.1C772.4 12.9 770.6 12.1 767.3 11.5C764 10.9 759.5 10.6 753.7 10.6C747.9 10.6 743.6 10.9 740.5 11.5Z" fill="#FFCD4C"/>
<path d="M834.6 38.9C830.8 37.2 827.7 34.9 825.3 31.9C822.8 28.9 821.3 25.5 820.6 21.7C819.9 17.9 820.3 14.5 821.7 11.5C823.1 8.5 825.4 6.2 828.6 4.5C831.8 2.8 835.5 2 840 2C844.4 2 848.5 2.8 852.2 4.5C855.9 6.2 859 8.5 861.5 11.5C864 14.5 865.5 17.9 866.2 21.7C866.9 25.5 866.5 28.9 865.1 31.9C863.7 34.9 861.4 37.2 858.3 38.9C855.2 40.6 851.4 41.4 847 41.4C842.4 41.4 838.3 40.6 834.6 38.9ZM855.7 45.5C859.5 45.5 863.1 45.3 866.5 44.8C869.9 44.4 872.5 43.7 874.5 42.8L876.8 56C873 57.8 866.6 58.7 857.8 58.7H857.2L860.2 75.7H845.5L842.5 58.7H824.2L821.9 45.5H855.7ZM836 15.9C834.6 17.4 834.2 19.3 834.6 21.7C835 24 836.2 25.9 838.1 27.5C840 29 842.2 29.8 844.9 29.8C847.6 29.8 849.5 29 850.8 27.5C852.1 26 852.6 24.1 852.2 21.7C851.8 19.4 850.7 17.5 848.8 15.9C846.9 14.4 844.7 13.6 842.1 13.6C839.5 13.6 837.3 14.4 836 15.9ZM886.1 1.3L899.2 75.7H884.5L871.4 1.3H886.1Z" fill="#FFCD4C"/>
<path d="M946.6 17.9H895.7L893.7 6.4H911.7L910.5 0H925.5L926.6 6.4H944.6L946.6 17.9ZM915.1 48.9C911.4 47.7 908.4 46 905.9 43.7C903.5 41.4 901.9 38.6 901.4 35.3C900.8 32 901.4 29.3 903 26.9C904.6 24.6 907.1 22.8 910.3 21.7C913.6 20.5 917.3 20 921.5 20C925.7 20 929.7 20.6 933.4 21.7C937.1 22.9 940.1 24.6 942.6 26.9C945 29.2 946.6 32 947.1 35.3C947.7 38.6 947.1 41.3 945.5 43.7C943.9 46 941.4 47.8 938.2 48.9C934.9 50.1 931.2 50.6 927 50.6C922.7 50.6 918.7 50.1 915.1 48.9ZM923.5 62.9H975.3L977.6 75.7H910.8L906.8 52.8H921.8L923.5 62.9ZM917.2 31.9C915.7 32.8 915.1 33.9 915.4 35.3C915.6 36.6 916.6 37.8 918.4 38.7C920.2 39.6 922.4 40.1 925 40.1C927.6 40.1 929.7 39.7 931.1 38.7C932.6 37.8 933.2 36.7 932.9 35.3C932.7 34 931.7 32.8 929.9 31.9C928.1 31 925.9 30.5 923.3 30.5C920.7 30.5 918.7 31 917.2 31.9ZM975.1 18.6L977.6 32.9H968.9L973.1 56.9H958.4L948.6 1.4H963.3L966.3 18.7H975.1V18.6Z" fill="#FFCD4C"/>
<path d="M98.4 106.2H111.9L124.7 179H111.2L107.6 158.8H93.9C92 164.6 89 169 84.9 172.1C80.8 175.2 76 176.7 70.5 176.9L68.1 163.1C73.7 162.6 77.7 159.6 79.9 154.1C82.2 148.6 82.4 140.7 80.6 130.4L78.9 120.9H60.6L58.3 107.7H90.6L93.1 121.7H101.1L98.4 106.2ZM105.3 145.1L103.6 135.3H95.4C95.7 138.3 95.9 141.5 96 145.1H105.3ZM131 105.9L144.1 180.3H130.4L117.3 105.9H131Z" fill="#FFCD4C"/>
<path d="M190.6 143.9H145.2L138.7 106.8H184.1L186.2 118.6H196.3L194.1 106H208.8L216 147H201.3L198.7 132.4H188.6L190.6 143.9ZM208.3 151.9C214.9 154.5 218.7 158.8 219.8 164.6C220.8 170.4 218.5 174.6 212.8 177.3C207.1 179.9 199.1 181.3 188.7 181.3C178.4 181.3 169.9 180 163.2 177.3C156.6 174.7 152.7 170.4 151.7 164.6C150.7 158.8 153 154.6 158.7 151.9C164.4 149.3 172.4 147.9 182.8 147.9C193.2 147.9 201.7 149.2 208.3 151.9ZM171.7 118.9H155.4L157.7 131.8H174L171.7 118.9ZM199.6 168.2C202.8 167.4 204.2 166.2 203.9 164.5C203.6 162.9 201.7 161.7 198.2 160.8C194.7 160 190.3 159.6 184.9 159.6C179.5 159.6 175.2 160 172 160.8C168.8 161.6 167.3 162.8 167.6 164.5C167.9 166.2 169.8 167.4 173.2 168.2C176.7 169 181.1 169.4 186.6 169.4C192.1 169.4 196.5 169 199.6 168.2Z" fill="#FFCD4C"/>
<path d="M233.8 134.2C227.1 131.4 223.2 127.1 222.2 121.6C221.2 116 223.6 111.8 229.3 109C235 106.2 243.1 104.7 253.3 104.7C263.6 104.7 272.1 106.1 278.8 109C285.5 111.8 289.4 116.1 290.4 121.6C291.4 127.1 289 131.4 283.3 134.2C277.6 137 269.5 138.5 259.3 138.5C249 138.5 240.5 137.1 233.8 134.2ZM297.5 141.8L299.6 153.9H269.4L271.2 164H256.4L254.6 153.9H224.4L222.3 141.8H297.5ZM246.2 168.1H298.7L300.9 180.3H233.4L229.5 158.3H244.5L246.2 168.1ZM242.1 117.5C238.9 118.5 237.5 119.9 237.8 121.6C238.1 123.4 240 124.8 243.5 125.7C247 126.7 251.6 127.1 257.3 127.1C263 127.1 267.4 126.6 270.6 125.7C273.7 124.7 275.2 123.4 274.8 121.6C274.5 119.9 272.6 118.5 269.1 117.5C265.6 116.5 261 116 255.4 116C249.7 116 245.3 116.5 242.1 117.5Z" fill="#FFCD4C"/>
<path d="M376.3 137.7L378.3 149H303L301 137.7H331.3L330.6 133.6H304.8L299.9 105.9H366.1L368.1 117.1H316.5L317.4 122.3H369.9L371.9 133.5H345.2L345.9 137.6H376.3V137.7ZM366.9 155.4C373.4 157.8 377 161.5 377.9 166.6C378.8 171.7 376.4 175.4 370.8 177.8C365.2 180.2 357 181.3 346.3 181.3C335.6 181.3 327 180.1 320.6 177.8C314.1 175.4 310.5 171.7 309.6 166.6C308.7 161.5 311.1 157.8 316.7 155.4C322.3 153 330.5 151.9 341.2 151.9C351.9 151.9 360.4 153.1 366.9 155.4ZM362.2 166.6C362 165.3 360.2 164.4 356.7 163.8C353.3 163.2 348.7 162.9 343 162.9C337.3 162.9 332.9 163.2 329.7 163.8C326.5 164.4 325 165.4 325.2 166.6C325.6 169.1 332 170.3 344.3 170.3C356.7 170.4 362.7 169.1 362.2 166.6Z" fill="#FFCD4C"/>
<path d="M413.5 109.4C417.4 111.4 420.7 114.2 423.4 117.9C426.1 121.6 427.8 125.8 428.7 130.5C429.5 135.3 429.3 139.5 427.9 143.1C426.5 146.8 424.2 149.6 421 151.6C417.8 153.6 413.9 154.6 409.3 154.6C404.7 154.6 400.4 153.6 396.5 151.6C392.5 149.6 389.2 146.8 386.5 143.1C383.8 139.4 382.1 135.2 381.2 130.5C380.4 125.7 380.6 121.5 382 117.9C383.4 114.3 385.7 111.4 389 109.4C392.2 107.4 396.2 106.4 400.8 106.4C405.4 106.4 409.6 107.4 413.5 109.4ZM431.7 176C428.2 176.6 424.5 176.8 420.7 176.8H387.4L385 163H418.9C422.6 163 426.2 162.8 429.5 162.3C432.9 161.8 435.6 161.1 437.6 160.1L440 173.7C438 174.7 435.2 175.5 431.7 176ZM396.7 122.7C395.3 124.8 394.9 127.4 395.5 130.6C396.1 133.9 397.4 136.5 399.5 138.5C401.6 140.5 404.1 141.6 407 141.6C409.9 141.6 412 140.6 413.4 138.5C414.8 136.4 415.2 133.8 414.6 130.6C414 127.4 412.7 124.8 410.6 122.7C408.5 120.6 406 119.6 403.1 119.6C400.2 119.6 398 120.6 396.7 122.7ZM460.2 180.3H445.5L432.4 105.9H447L460.2 180.3Z" fill="#FFCD4C"/>
<path d="M513.2 137.5L540.7 168.2L530.3 176.7L511 154.5C509.1 161.6 506.2 167.1 502.2 171C498.2 174.8 493.4 176.8 487.7 176.8L485 161.6C488.9 161.1 491.9 158.6 494.2 153.9C496.5 149.2 497.7 142.8 498.1 134.8C498.4 126.7 497.7 117.6 495.9 107.3L511 107.8C512.7 118.6 513.5 128.5 513.2 137.5ZM546.4 105.9L559.5 180.3H544.8L531.7 105.9H546.4Z" fill="#FFCD4C"/>
<path d="M575.9 145.6C572 147.8 567.5 149 562.4 149.1L560.1 135.9C564.8 135.6 568.4 133.8 571 130.6C573.5 127.4 574.8 123.6 574.7 119.2H558.2L556 106.8H603.4L605.6 119.2H589.6C589.8 121.2 589.7 123.2 589.5 125.4L611.7 137.9L606 148.6L585.3 136.7C582.9 140.4 579.8 143.4 575.9 145.6ZM566 152.8H632L637 181.2H622L619.2 165.4H568.1L566 152.8ZM637.3 132.9H628.6L631.6 150.2H616.9L609.1 105.9H623.8L626.1 118.8H634.8L637.3 132.9Z" fill="#FFCD4C"/>
<path fill-rule="evenodd" clip-rule="evenodd" d="M0 1.79999H15.2L67.4294 298H52.2294L0 1.79999Z" fill="#FFCD4C"/>
</svg>
