<svg width="611" height="383" viewBox="0 0 611 383" fill="none" xmlns="http://www.w3.org/2000/svg">
<path d="M497.607 134.201H353.853L330.229 0H473.983L481.522 42.7231H518.215L510.675 0H563.954L587.578 134.201H534.299L526.76 92.4829H490.067L497.607 134.201ZM429.248 43.7283H390.546L398.588 90.4724H437.291L429.248 43.7283Z" fill="#FFB74C"/>
<path d="M540.331 148.274H415.677C383.006 148.274 360.89 174.914 366.922 207.584C372.451 240.255 404.117 266.894 436.788 266.894H560.939C593.61 266.894 615.726 240.255 609.694 207.584C604.165 174.914 573.002 148.274 540.331 148.274ZM544.352 225.176H439.301C429.751 225.176 420.201 217.134 418.693 207.584C417.185 198.034 423.72 189.992 433.27 189.992H538.32C547.87 189.992 557.42 198.034 558.928 207.584C560.436 217.134 553.902 225.176 544.352 225.176Z" fill="#FFB74C"/>
<path d="M268.406 129.677H104.547L81.9287 0H132.695L137.218 25.1312H199.042L194.519 0H245.285L268.406 129.677ZM359.383 262.37L236.74 233.218C225.179 239.752 209.598 247.794 188.99 252.82C168.382 258.349 149.282 259.354 135.208 259.354L127.668 217.134C138.726 217.637 154.308 216.631 171.398 211.605C186.979 207.081 198.037 200.045 205.577 194.516H126.16L119.124 153.803H200.048L197.535 140.232H250.814L253.327 153.803H341.79L348.827 194.516H262.877L261.872 199.542L364.912 220.15L359.383 262.37ZM204.069 88.4619L200.048 65.8438H138.224L142.245 88.4619H204.069ZM337.267 129.677H284.993L262.374 0H314.648L337.267 129.677Z" fill="#FFB74C"/>
<path d="M0 0L67.8556 383H120.632L52.7766 0H0Z" fill="#FFB74C"/>
</svg>
