<svg width="128" height="80" viewBox="0 0 128 80" fill="none" xmlns="http://www.w3.org/2000/svg">
<path d="M103.938 28.0315H73.9116L68.9771 0H99.0039L100.579 8.92388H108.243L106.668 0H117.797L122.731 28.0315H111.603L110.028 19.3176H102.364L103.938 28.0315ZM89.6599 9.13386H81.5758L83.2556 18.8976H91.3397L89.6599 9.13386Z" fill="#5826E8"/>
<path d="M112.863 30.9709H86.8255C80.0012 30.9709 75.3817 36.5353 76.6416 43.3594C77.7964 50.1836 84.4107 55.7479 91.235 55.7479H117.167C123.992 55.7479 128.611 50.1836 127.351 43.3594C126.196 36.5353 119.687 30.9709 112.863 30.9709ZM113.703 47.0339H91.76C89.7652 47.0339 87.7704 45.3542 87.4554 43.3594C87.1405 41.3647 88.5053 39.6849 90.5001 39.6849H112.443C114.438 39.6849 116.432 41.3647 116.747 43.3594C117.062 45.3542 115.697 47.0339 113.703 47.0339Z" fill="#5826E8"/>
<path d="M56.0639 27.0866H21.8375L17.113 0H27.7169L28.6618 5.24934H41.5754L40.6305 0H51.2344L56.0639 27.0866ZM75.0669 54.8031L49.4496 48.7139C47.0348 50.0787 43.7802 51.7585 39.4756 52.8084C35.1711 53.9633 31.1815 54.1732 28.2418 54.1732L26.667 45.3543C28.9768 45.4593 32.2314 45.2493 35.801 44.1995C39.0557 43.2546 41.3654 41.7848 42.9403 40.6299H26.352L24.8822 32.126H41.7854L41.2605 29.2913H52.3893L52.9142 32.126H71.3923L72.8621 40.6299H54.909L54.699 41.6798L76.2217 45.9842L75.0669 54.8031ZM42.6253 18.4777L41.7854 13.7533H28.8718L29.7117 18.4777H42.6253ZM70.4474 27.0866H59.5285L54.804 0H65.7229L70.4474 27.0866Z" fill="#5826E8"/>
<path d="M0 0L14.1735 80H25.1973L11.0238 0H0Z" fill="#5826E8"/>
</svg>
