<svg width="722" height="254" viewBox="0 0 722 254" fill="none" xmlns="http://www.w3.org/2000/svg">
<path d="M34.9229 0H0L45.3998 254H80.3227L34.9229 0Z" fill="#FFCD4C"/>
<path d="M224.38 89.2901H69.8462L54.1309 0H208.665L224.38 89.2901ZM179.853 31.2082H93.4191L98.6576 58.0819H185.092L179.853 31.2082Z" fill="#FFCD4C"/>
<path d="M711.555 114.43H556.149L536.068 0H691.475L696.713 29.4744H575.356L577.975 43.3447H699.332L704.571 71.0853H582.341L584.96 84.9556H706.317L711.555 114.43Z" fill="#FFCD4C"/>
<path d="M514.241 121.365H440.03C433.918 121.365 429.553 126.567 430.426 132.635C431.299 138.703 437.411 143.905 443.522 143.905H517.733C523.845 143.905 528.21 138.703 527.337 132.635C526.464 126.567 520.353 121.365 514.241 121.365Z" fill="#FFCD4C"/>
<path d="M518.607 94.4914L513.368 63.2832H479.318L484.557 94.4914H515.114C516.86 94.4914 517.734 94.4914 518.607 94.4914Z" fill="#FFCD4C"/>
<path d="M447.886 76.2866L439.155 27.7405H412.09L420.821 76.2866H447.886Z" fill="#FFCD4C"/>
<path d="M242.715 137.836H172.869L179.854 175.98H144.931L137.946 137.836H76.8312L71.5928 106.628H237.477L242.715 137.836Z" fill="#FFCD4C"/>
<path d="M561.385 137.836C562.259 152.573 553.528 165.577 539.559 169.911H721.158L715.919 137.836H561.385Z" fill="#FFCD4C"/>
<path d="M398.122 137.836H242.715L247.953 169.911H430.425C416.456 165.577 403.36 152.573 398.122 137.836Z" fill="#FFCD4C"/>
<path d="M340.497 0L344.863 24.273H255.809L251.444 0H218.267L237.475 106.628H392.882L373.674 0H340.497ZM353.593 76.2867H265.413L261.048 53.7474H349.228L353.593 76.2867Z" fill="#FFCD4C"/>
<path d="M502.016 0H467.966L473.205 31.2082H508.128L502.016 0Z" fill="#FFCD4C"/>
</svg>
