<svg width="399" height="140" viewBox="0 0 399 140" fill="none" xmlns="http://www.w3.org/2000/svg">
<path d="M19.1957 0H0L19.7883 140H39.0005L19.1957 0Z" fill="#5826E8"/>
<path d="M120.856 49.0466H36.5536L29.6217 0H113.924L120.856 49.0466ZM97.903 17.089H50.4667L52.5907 32.0727H100.043L97.903 17.089Z" fill="#5826E8"/>
<path d="M387.114 62.8297H302.219L293.328 0H378.272L380.561 16.316H314.058L315.095 23.7009H381.598L383.771 39.1287H317.285L318.322 46.5137H384.809L387.114 62.8297Z" fill="#5826E8"/>
<path d="M278.756 66.9092H238.334C234.925 66.9092 232.538 69.6724 233.032 73.077C233.509 76.4817 236.671 79.2449 240.079 79.2449H280.501C283.909 79.2449 286.297 76.4817 285.803 73.077C285.325 69.6724 282.164 66.9092 278.756 66.9092Z" fill="#5826E8"/>
<path d="M282.049 52.1225L279.579 34.7046H260.825L263.279 52.0239H280.04C280.715 52.0239 281.391 52.0568 282.049 52.1225Z" fill="#5826E8"/>
<path d="M243.454 42.1061L239.667 15.3295H224.98L228.767 42.1061H243.454Z" fill="#5826E8"/>
<path d="M130.157 75.8396H92.089L95.0857 96.9912H75.8872L72.8906 75.8396H39.4497L37.0128 58.6355H127.736L130.157 75.8396Z" fill="#5826E8"/>
<path d="M304.311 75.8235C304.393 84.1131 299.437 90.8895 291.929 93.2415H391.395L388.942 75.8235H304.311Z" fill="#5826E8"/>
<path d="M215.299 75.8237H130.158L132.627 93.2417H232.604C224.438 90.9061 217.572 84.1297 215.299 75.8237Z" fill="#5826E8"/>
<path d="M186.072 0L187.966 13.339H139.64L137.747 0H119.421L127.719 58.6355H212.68L204.398 0H186.072ZM192.032 42.1057H143.707L141.945 29.6549H190.271L192.032 42.1057Z" fill="#5826E8"/>
<path d="M274.673 0.0164476V0H255.919L258.372 17.3028H277.126L274.673 0.0164476Z" fill="#5826E8"/>
<path d="M225.869 124.508H223.63L224.19 128.422H220.287L220.008 126.465L218.114 128.422L215.348 125.938C214.936 126.728 214.393 127.353 213.701 127.813C213.01 128.274 212.187 128.537 211.232 128.603L208.63 126.086C208.202 126.827 207.642 127.419 206.967 127.863C206.292 128.307 205.502 128.554 204.613 128.619L204.168 125.429C204.777 125.281 205.238 124.886 205.551 124.211C205.864 123.537 206.012 122.698 205.979 121.695H204.086L203.641 118.554H210.326L210.771 121.695H209.585C209.602 122.156 209.585 122.649 209.536 123.208L211.544 125.067C211.907 124.771 212.187 124.327 212.351 123.734C212.532 123.142 212.598 122.468 212.565 121.695H211.495L211.05 118.554H217.785L218.229 121.695H216.171C216.188 122.172 216.188 122.583 216.138 122.961L219.925 126.152L218.822 118.323H222.724L223.087 120.873H225.326L225.869 124.508ZM210.688 135.758H216.006L216.385 138.471H207.478L206.654 132.616H211.808L211.693 131.843H206.49L206.111 129.129H214.903L215.727 134.985H210.573L210.688 135.758ZM220.798 129.129H224.272L225.589 138.471H217.093L215.776 129.129H219.25L219.53 131.07H221.094L220.798 129.129ZM221.736 135.758L221.44 133.702H219.876L220.172 135.758H221.736Z" fill="#5826E8"/>
<path d="M236.704 127.485L243.635 135.084L240.803 137.436L235.963 131.91C235.403 133.702 234.563 135.084 233.443 136.054C232.324 137.025 231.007 137.518 229.492 137.535L228.932 133.521C229.887 133.406 230.677 132.896 231.303 131.959C231.929 131.021 232.34 129.739 232.554 128.11C232.768 126.482 232.735 124.59 232.488 122.469H227.928L227.417 118.817H240.309L240.82 122.469H236.506C236.687 124.262 236.769 125.939 236.704 127.485ZM245.908 118.324L248.756 138.472H244.772L241.923 118.324H245.908Z" fill="#5826E8"/>
<path d="M263.524 130.035H251.225L249.595 118.571H261.894L263.524 130.035ZM256.658 134.887H270.687L271.197 138.472H253.102L252.097 131.416H256.164L256.658 134.887ZM258.436 121.942H254.024L254.699 126.663H259.111L258.436 121.942ZM270.983 122.337L271.526 126.202H269.172L270.16 133.225H266.175L264.068 118.324H268.052L268.612 122.337H270.983Z" fill="#5826E8"/>
<path d="M289.327 130.298C290.365 130.298 291.336 130.232 292.258 130.117C293.164 130.002 293.905 129.821 294.448 129.558L294.958 133.143C293.905 133.637 292.176 133.867 289.772 133.867H289.607L290.266 138.472H286.281L285.623 133.867H280.667L280.156 130.281H289.327V130.298ZM283.68 128.505C282.675 128.044 281.852 127.419 281.21 126.614C280.568 125.808 280.173 124.887 280.024 123.834C279.876 122.798 280.008 121.877 280.42 121.054C280.831 120.248 281.473 119.607 282.346 119.163C283.219 118.702 284.256 118.472 285.441 118.472C286.643 118.472 287.73 118.702 288.718 119.163C289.706 119.623 290.529 120.248 291.171 121.054C291.813 121.86 292.209 122.781 292.357 123.834C292.505 124.87 292.373 125.791 291.962 126.614C291.55 127.419 290.908 128.061 290.052 128.505C289.196 128.966 288.158 129.196 286.956 129.196C285.787 129.179 284.684 128.949 283.68 128.505ZM284.272 122.271C283.894 122.683 283.746 123.192 283.828 123.834C283.91 124.459 284.207 124.985 284.717 125.396C285.211 125.808 285.82 126.005 286.528 126.005C287.236 126.005 287.78 125.808 288.158 125.396C288.537 124.985 288.669 124.475 288.586 123.834C288.504 123.209 288.208 122.683 287.714 122.271C287.22 121.86 286.627 121.663 285.919 121.663C285.211 121.663 284.651 121.86 284.272 122.271ZM298.004 118.324L300.853 138.472H296.868L294.02 118.324H298.004Z" fill="#5826E8"/>
<path d="M308.723 134.048C309.546 134.048 310.369 133.982 311.209 133.867C312.049 133.752 312.757 133.587 313.316 133.357L313.81 136.795C313.283 137.025 312.543 137.206 311.62 137.337C310.698 137.469 309.776 137.518 308.854 137.518H304.228L301.577 118.785H310.386L310.88 122.271H305.923L307.586 134.015H308.723V134.048ZM321.236 118.324L324.085 138.472H320.347L319.079 129.508H317.4L318.618 138.11H314.93L312.164 118.423H315.852L316.889 125.742H318.569L317.515 118.34H321.236V118.324Z" fill="#5826E8"/>
<path d="M338.113 122.814H324.315L323.871 119.705H328.728L328.481 117.978H332.548L332.795 119.705H337.652L338.113 122.814ZM329.288 131.202C328.3 130.889 327.493 130.412 326.851 129.787C326.209 129.162 325.83 128.406 325.698 127.518C325.566 126.629 325.748 125.889 326.209 125.248C326.67 124.623 327.345 124.146 328.234 123.833C329.123 123.521 330.144 123.356 331.296 123.356C332.449 123.356 333.503 123.521 334.491 123.833C335.478 124.146 336.285 124.623 336.927 125.248C337.57 125.873 337.948 126.629 338.08 127.518C338.212 128.406 338.031 129.146 337.57 129.787C337.109 130.412 336.433 130.889 335.544 131.202C334.655 131.514 333.634 131.679 332.482 131.679C331.329 131.679 330.259 131.531 329.288 131.202ZM331.445 135.001H345.473L345.967 138.472H327.872L326.999 132.271H331.066L331.445 135.001ZM330.045 126.629C329.633 126.876 329.469 127.172 329.518 127.534C329.568 127.896 329.831 128.192 330.308 128.439C330.786 128.685 331.379 128.8 332.087 128.8C332.795 128.8 333.354 128.685 333.766 128.439C334.178 128.192 334.359 127.896 334.293 127.534C334.244 127.172 333.98 126.876 333.503 126.629C333.025 126.383 332.432 126.268 331.724 126.268C331.016 126.268 330.44 126.383 330.045 126.629ZM345.852 122.995L346.395 126.86H344.04L344.962 133.34H340.978L338.854 118.307H342.838L343.497 122.978H345.852V122.995Z" fill="#5826E8"/>
<path d="M363.421 126.893L370.566 135.199L367.652 137.518L362.647 131.498C362.07 133.439 361.214 134.92 360.095 135.956C358.975 136.992 357.641 137.518 356.11 137.535L355.534 133.423C356.587 133.291 357.444 132.6 358.102 131.334C358.761 130.068 359.173 128.341 359.337 126.153C359.502 123.965 359.387 121.498 358.991 118.719L363.075 118.867C363.47 121.762 363.602 124.442 363.421 126.893ZM372.723 118.324L375.572 138.472H371.587L368.739 118.324H372.723Z" fill="#5826E8"/>
<path d="M387.936 126.581C387.097 127.864 385.812 128.834 384.1 129.475C382.388 130.117 380.346 130.429 377.991 130.429L377.498 126.91C379.045 126.893 380.412 126.696 381.564 126.334C382.717 125.972 383.573 125.446 384.149 124.788C384.726 124.13 384.956 123.357 384.825 122.452L384.759 122.008H376.806L376.312 118.571H388.332L388.793 121.794C389.073 123.702 388.776 125.298 387.936 126.581ZM383.474 134.887H397.503L398.013 138.472H379.918L378.93 131.482H382.997L383.474 134.887ZM397.799 122.337L398.342 126.202H395.988L396.976 133.225H392.991L390.884 118.324H394.868L395.428 122.337H397.799Z" fill="#5826E8"/>
</svg>
