<svg width="125" height="80" viewBox="0 0 125 80" fill="none" xmlns="http://www.w3.org/2000/svg">
<path d="M101.34 28.0315H72.0641L67.1506 0H96.4267L97.9622 8.92388H105.435L104.002 0H114.852L119.663 28.0315H108.813L107.277 19.3176H99.8048L101.34 28.0315ZM87.3163 9.13386H79.4343L81.0721 18.8976H88.9541L87.3163 9.13386Z" fill="#5826E8"/>
<path d="M109.939 30.9707H84.5524C77.8987 30.9707 73.3947 36.535 74.6231 43.3592C75.7491 50.1833 82.198 55.7476 88.8517 55.7476H114.238C120.892 55.7476 125.396 50.1833 124.167 43.3592C123.041 36.535 116.695 30.9707 109.939 30.9707ZM110.86 47.0337H89.4659C87.521 47.0337 85.576 45.3539 85.2689 43.3592C84.9619 41.3644 86.2926 39.6846 88.2375 39.6846H109.632C111.577 39.6846 113.521 41.3644 113.829 43.3592C114.136 45.3539 112.805 47.0337 110.86 47.0337Z" fill="#5826E8"/>
<path d="M50.6701 29.8163L51.0796 32.231H69.5051L71.9619 46.2992H34.8037L35.1108 48.189H72.2689L73.3949 54.8031H26.1027L23.646 40.7349H60.9065L60.5994 38.8451H23.3389L22.2129 32.231H40.6384L40.229 29.8163H21.8034L20.4727 22.0472H67.7649L69.0957 29.8163H50.6701ZM67.4578 20.0525H20.1656L18.8349 12.5984H26.4098L25.5909 7.55905H18.0159L16.6852 0H63.9775L65.3082 7.45407H57.7332L58.5521 12.4934H66.1271L67.4578 20.0525ZM36.8509 12.5984H48.111L47.2921 7.55905H36.032L36.8509 12.5984Z" fill="#5826E8"/>
<path d="M0 0L13.8192 80H24.5674L10.7482 0H0Z" fill="#5826E8"/>
</svg>
