<svg width="611" height="383" viewBox="0 0 611 383" fill="none" xmlns="http://www.w3.org/2000/svg">
<path d="M497.606 134.201H353.853L329.727 0H473.48L481.019 42.7231H517.712L510.675 0H563.954L587.578 134.201H534.299L526.759 92.4829H490.067L497.606 134.201ZM428.746 43.7283H390.043L398.085 90.4724H436.788L428.746 43.7283Z" fill="#4FBF80"/>
<path d="M539.827 148.274H415.174C382.503 148.274 360.387 174.914 366.418 207.584C371.947 240.255 403.613 266.894 436.285 266.894H560.938C593.609 266.894 615.725 240.255 609.693 207.584C604.164 174.914 573.001 148.274 539.827 148.274ZM544.351 225.176H439.3C429.75 225.176 420.2 217.134 418.692 207.584C417.184 198.034 423.719 189.992 433.269 189.992H538.319C547.869 189.992 557.419 198.034 558.927 207.584C560.435 217.134 553.901 225.176 544.351 225.176Z" fill="#4FBF80"/>
<path d="M248.803 142.745L250.814 154.306H341.288L353.351 221.657H170.895L172.403 230.705H354.859L360.388 262.37H128.171L116.108 195.018H299.067L297.559 185.971H114.6L109.071 154.306H199.545L197.535 142.745H107.06L100.526 105.551H332.743L339.278 142.745H248.803ZM331.235 96.0013H99.0182L92.4841 60.315H129.679L125.658 36.189H88.463L81.9287 0H314.146L320.68 35.6864H283.485L287.506 59.8123H324.701L331.235 96.0013ZM180.948 60.315H236.237L232.216 36.189H176.927L180.948 60.315Z" fill="#4FBF80"/>
<path d="M0 0L67.8556 383H120.632L52.7766 0H0Z" fill="#4FBF80"/>
</svg>
