<svg width="875" height="383" viewBox="0 0 875 383" fill="none" xmlns="http://www.w3.org/2000/svg">
<path d="M760.988 134.201H617.235L593.108 0H736.862L744.401 42.7231H781.094L773.554 0H826.833L850.458 134.201H797.178L789.638 92.4829H752.946L760.988 134.201ZM692.128 43.7283H653.425L661.467 90.4724H700.17L692.128 43.7283Z" fill="#4C94FE"/>
<path d="M803.209 148.274H678.556C645.885 148.274 623.769 174.914 629.801 207.584C635.33 240.255 666.996 266.894 699.667 266.894H824.32C856.991 266.894 879.107 240.255 873.076 207.584C867.547 174.914 836.383 148.274 803.209 148.274ZM807.733 225.176H702.683C693.133 225.176 683.583 217.134 682.075 207.584C680.567 198.034 687.101 189.992 696.651 189.992H801.701C811.251 189.992 820.801 198.034 822.309 207.584C823.817 217.134 817.283 225.176 807.733 225.176Z" fill="#4C94FE"/>
<path d="M187.986 32.168H245.286L253.328 78.4095H86.4536L78.4116 32.168H136.214L130.183 0H182.457L187.986 32.168ZM213.117 99.5197C225.683 106.556 236.238 116.106 244.28 128.169C252.323 140.232 257.852 154.306 260.365 169.385C262.878 184.463 262.375 198.537 258.354 210.6C254.333 222.663 247.297 232.213 237.244 239.249C227.191 246.286 214.625 249.805 199.546 249.805C184.467 249.805 170.394 246.286 157.828 239.249C145.262 232.213 134.706 222.663 126.664 210.6C118.622 198.537 113.093 184.463 110.58 169.385C108.067 154.306 108.57 140.232 112.591 128.169C116.612 116.106 123.649 106.556 133.701 99.5197C143.754 92.483 156.32 88.9646 171.399 88.9646C186.478 88.9646 200.552 92.483 213.117 99.5197ZM210.102 195.521C213.62 188.987 214.123 179.94 212.112 168.882C210.102 157.824 206.081 148.777 200.552 142.243C194.52 135.709 187.986 132.19 179.441 132.19C171.399 132.19 165.367 135.709 161.849 142.243C158.33 148.777 157.828 157.824 159.838 168.882C161.849 179.94 165.87 188.987 171.399 195.521C177.43 202.055 183.965 205.574 192.51 205.574C200.552 205.574 206.583 202.558 210.102 195.521ZM354.86 144.253H334.252L354.357 258.349H303.591L258.354 1.00525H309.12L325.707 94.9961H346.315L354.86 144.253Z" fill="#4C94FE"/>
<path d="M602.157 137.719H369.437L362.903 100.525H595.622L602.157 137.719ZM616.23 217.134H433.774L435.282 226.684H617.738L623.267 258.852H391.553L379.49 189.992H561.946L560.438 180.442H377.479L371.95 148.274H604.67L616.23 217.134ZM405.124 51.7703H587.078L593.612 89.9698H360.893L345.311 0H396.077L405.124 51.7703Z" fill="#4C94FE"/>
<path d="M0 0L67.8557 383H120.13L52.2742 0H0Z" fill="#4C94FE"/>
</svg>
