<svg width="179" height="80" viewBox="0 0 179 80" fill="none" xmlns="http://www.w3.org/2000/svg">
<path d="M154.979 28.0315H125.703L120.79 0H150.066L151.601 8.92388H159.074L157.538 0H168.389L173.2 28.0315H162.349L160.814 19.3176H153.342L154.979 28.0315ZM140.955 9.13386H133.073L134.711 18.8976H142.593L140.955 9.13386Z" fill="#5826E8"/>
<path d="M163.578 30.9709H138.191C131.538 30.9709 127.034 36.5353 128.262 43.3594C129.388 50.1835 135.837 55.7479 142.491 55.7479H167.877C174.531 55.7479 179.035 50.1835 177.806 43.3594C176.68 36.5353 170.334 30.9709 163.578 30.9709ZM164.499 47.0339H143.105C141.16 47.0339 139.215 45.3542 138.908 43.3594C138.601 41.3646 139.932 39.6849 141.877 39.6849H163.271C165.216 39.6849 167.16 41.3646 167.468 43.3594C167.775 45.3542 166.444 47.0339 164.499 47.0339Z" fill="#5826E8"/>
<path d="M38.2843 6.71916H49.9538L51.5916 16.378H17.6067L15.9689 6.71916H27.7408L26.5124 0H37.1583L38.2843 6.71916ZM43.4025 20.7874C45.9616 22.2572 48.1112 24.252 49.749 26.7717C51.3868 29.2913 52.5129 32.231 53.0247 35.3806C53.5365 38.5302 53.4342 41.4698 52.6152 43.9895C51.7963 46.5092 50.3633 48.5039 48.316 49.9738C46.2687 51.4436 43.7096 52.1785 40.6386 52.1785C37.5677 52.1785 34.7015 51.4436 32.1424 49.9738C29.5833 48.5039 27.4337 46.5092 25.7959 43.9895C24.158 41.4698 23.032 38.5302 22.5202 35.3806C22.0084 32.231 22.1108 29.2913 22.9297 26.7717C23.7486 24.252 25.1817 22.2572 27.229 20.7874C29.2763 19.3176 31.8354 18.5827 34.9063 18.5827C37.9772 18.5827 40.8434 19.3176 43.4025 20.7874ZM42.7883 40.8399C43.5049 39.4751 43.6072 37.5853 43.1977 35.2756C42.7883 32.9659 41.9694 31.0761 40.8434 29.7113C39.615 28.3465 38.2843 27.6116 36.5441 27.6116C34.9063 27.6116 33.6779 28.3465 32.9613 29.7113C32.2448 31.0761 32.1425 32.9659 32.5519 35.2756C32.9614 37.5853 33.7803 39.4751 34.9063 40.8399C36.1346 42.2047 37.4654 42.9396 39.2056 42.9396C40.8434 42.9396 42.0718 42.3097 42.7883 40.8399ZM72.2691 30.1312H68.0722L72.1668 53.9633H61.828L52.6152 0.209974H62.954L66.3321 19.8425H70.529L72.2691 30.1312Z" fill="#5826E8"/>
<path d="M122.632 28.7664H75.2378L73.9071 20.9974H121.302L122.632 28.7664ZM125.499 45.3543H88.3404L88.6475 47.3491H125.806L126.932 54.0683H79.7418L77.2851 39.685H114.443L114.136 37.6903H76.8756L75.7496 30.9711H123.144L125.499 45.3543ZM82.5056 10.8137H119.561L120.892 18.7927H73.4977L70.3244 0H80.6631L82.5056 10.8137Z" fill="#5826E8"/>
<path d="M0 0L13.8192 80H24.4651L10.6459 0H0Z" fill="#5826E8"/>
</svg>
