<svg width="178" height="80" viewBox="0 0 178 80" fill="none" xmlns="http://www.w3.org/2000/svg">
<path d="M153.956 28.0315H124.68L119.868 0H149.145L150.68 8.92388H158.153L156.617 0H167.468L172.279 28.0315H161.428L159.893 19.3176H152.42L153.956 28.0315ZM140.034 9.13386H132.152L133.79 18.8976H141.672L140.034 9.13386Z" fill="#5826E8"/>
<path d="M162.657 30.9707H137.27C130.617 30.9707 126.113 36.535 127.341 43.3592C128.467 50.1833 134.916 55.7476 141.57 55.7476H166.956C173.61 55.7476 178.114 50.1833 176.885 43.3592C175.657 36.535 169.31 30.9707 162.657 30.9707ZM163.476 47.0337H142.082C140.137 47.0337 138.192 45.3539 137.885 43.3592C137.578 41.3644 138.908 39.6846 140.853 39.6846H162.247C164.192 39.6846 166.137 41.3644 166.444 43.3592C166.751 45.3539 165.421 47.0337 163.476 47.0337Z" fill="#5826E8"/>
<path d="M50.5679 24.8819C49.5443 27.2966 47.9065 29.1864 45.5521 30.5512C43.1977 31.916 40.3316 32.5459 37.0559 32.5459C33.7803 32.5459 30.607 31.916 27.8432 30.5512C25.0794 29.1864 22.7249 27.2966 20.8824 24.8819C19.0398 22.4672 17.8115 19.6325 17.2996 16.378C16.7878 13.1234 16.9926 10.3937 18.0163 7.87402C19.0399 5.45932 20.6776 3.56955 23.032 2.20472C25.3864 0.839895 28.2526 0.209974 31.5283 0.209974C34.9063 0.209974 37.9772 0.839895 40.741 2.20472C43.5049 3.56955 45.8593 5.45932 47.7018 7.87402C49.5444 10.2887 50.7728 13.1234 51.2846 16.378C51.7964 19.5276 51.5916 22.3622 50.5679 24.8819ZM73.8047 44.5144L75.4425 54.0683H28.0479L24.7723 35.1706H35.4181L37.0559 44.5144H73.8047ZM30.4023 21.6273C31.8354 22.8871 33.5755 23.5171 35.6228 23.5171C37.6701 23.5171 39.1032 22.8871 40.1269 21.6273C41.1505 20.3675 41.4576 18.5827 41.0482 16.273C40.6387 13.9633 39.7174 12.1785 38.2843 10.9186C36.8512 9.65879 35.111 9.02887 33.0637 9.02887C31.0164 9.02887 29.5833 9.65879 28.5597 10.9186C27.536 12.1785 27.2289 13.9633 27.6384 16.273C28.0478 18.5827 28.9692 20.3675 30.4023 21.6273ZM59.0642 18.7927L58.1429 13.6483H52.3082L50.0561 4.19948H56.5051L55.7885 0H66.0249L72.8834 40.105H62.647L60.5997 28.2415H54.1507L53.127 18.7927H59.0642V18.7927Z" fill="#5826E8"/>
<path d="M102.876 18.4777C104.105 25.7218 104.002 32.021 102.364 37.3753C100.829 42.7297 97.9627 46.8242 93.8682 49.7638C89.7736 52.7034 84.6554 54.0683 78.5135 54.0683L76.7733 43.8845C83.0175 43.8845 87.5216 41.5748 90.1831 37.0604C92.8446 32.5459 93.4586 26.3517 92.1279 18.3727L90.6949 9.76378H71.0409L69.4031 0H99.8052L102.876 18.4777ZM126.011 54.0683H115.569L106.254 0H116.695L126.011 54.0683Z" fill="#5826E8"/>
<path d="M0 0L13.8191 80H24.5673L10.7482 0H0Z" fill="#5826E8"/>
</svg>
