<svg width="870" height="383" viewBox="0 0 870 383" fill="none" xmlns="http://www.w3.org/2000/svg">
<path d="M755.961 134.201H612.208L588.584 0H732.337L739.877 42.7231H776.569L769.029 0H822.309L845.933 134.201H792.653L785.114 92.4829H748.421L755.961 134.201ZM687.603 43.7283H648.9L656.942 90.4724H695.645L687.603 43.7283Z" fill="#CCCCCC"/>
<path d="M798.685 148.274H674.032C641.361 148.274 619.245 174.914 625.276 207.584C630.805 240.255 662.471 266.894 695.143 266.894H819.796C852.467 266.894 874.583 240.255 868.551 207.584C862.52 174.914 831.356 148.274 798.685 148.274ZM802.706 225.176H697.656C688.106 225.176 678.556 217.134 677.048 207.584C675.54 198.034 682.074 189.992 691.624 189.992H796.674C806.224 189.992 815.775 198.034 817.283 207.584C818.791 217.134 812.256 225.176 802.706 225.176Z" fill="#CCCCCC"/>
<path d="M248.301 119.122C243.275 130.682 235.233 139.73 223.672 146.264C212.111 152.798 198.038 155.814 181.954 155.814C165.87 155.814 150.288 152.798 136.717 146.264C123.146 139.73 111.585 130.682 102.537 119.122C93.49 107.562 87.4584 93.9908 84.9453 78.4095C82.4321 62.8281 83.4377 49.7598 88.4641 37.6969C93.4904 26.1365 101.532 17.0892 113.093 10.5551C124.653 4.021 138.727 1.00525 154.811 1.00525C171.398 1.00525 186.477 4.021 200.048 10.5551C213.62 17.0892 225.18 26.1365 234.228 37.6969C243.275 49.2572 249.307 62.8281 251.82 78.4095C254.333 93.4882 253.328 107.059 248.301 119.122ZM362.399 213.113L370.441 258.852H137.722L121.638 168.379H173.912L181.954 213.113H362.399ZM149.283 103.541C156.319 109.572 164.864 112.588 174.917 112.588C184.969 112.588 192.006 109.572 197.033 103.541C202.059 97.5092 203.567 88.9646 201.557 77.9068C199.546 66.8491 195.022 58.3045 187.985 52.273C180.948 46.2415 172.404 43.2257 162.351 43.2257C152.298 43.2257 145.261 46.2415 140.235 52.273C135.209 58.3045 133.701 66.8491 135.711 77.9068C137.722 88.9646 142.246 97.5092 149.283 103.541ZM290.02 89.9698L285.496 65.3412H256.846L245.788 20.105H277.454L273.935 0H324.199L357.876 192.003H307.612L297.56 135.206H265.893L260.867 89.9698H290.02Z" fill="#CCCCCC"/>
<path d="M505.148 88.462C511.18 123.143 510.677 153.301 502.635 178.934C495.096 204.568 481.022 224.171 460.917 238.244C440.811 252.318 415.68 258.852 385.522 258.852L376.977 210.097C407.637 210.097 429.754 199.039 442.822 177.427C455.891 155.814 458.906 126.159 452.372 87.9593L445.335 46.7441H348.829L340.787 0H490.069L505.148 88.462ZM618.744 258.852H567.475L521.735 0H573.004L618.744 258.852Z" fill="#CCCCCC"/>
<path d="M0 0L67.8554 383H120.632L52.7764 0H0Z" fill="#CCCCCC"/>
</svg>
