<svg width="125" height="80" viewBox="0 0 125 80" fill="none" xmlns="http://www.w3.org/2000/svg">
<path d="M101.238 28.0315H71.9621L67.151 0H96.4271L97.9625 8.92388H105.435L103.9 0H114.75L119.561 28.0315H108.711L107.175 19.3176H99.7027L101.238 28.0315ZM87.3167 9.13386H79.4347L81.0725 18.8976H88.9545L87.3167 9.13386Z" fill="#5826E8"/>
<path d="M109.939 30.9709H84.5525C77.8988 30.9709 73.3948 36.5353 74.6232 43.3594C75.7492 50.1835 82.1981 55.7479 88.8518 55.7479H114.238C120.892 55.7479 125.396 50.1835 124.167 43.3594C122.939 36.5353 116.592 30.9709 109.939 30.9709ZM110.758 47.0339H89.3636C87.4187 47.0339 85.4738 45.3542 85.1667 43.3594C84.8596 41.3646 86.1903 39.6849 88.1353 39.6849H109.529C111.474 39.6849 113.419 41.3646 113.726 43.3594C114.033 45.3542 112.703 47.0339 110.758 47.0339Z" fill="#5826E8"/>
<path d="M51.5919 29.6063H21.7014L16.6856 0.629921H26.3078L27.4339 6.92913H38.0798L36.9538 0.629921H46.576L51.5919 29.6063ZM22.3157 33.2808H69.7104L73.3955 54.6982H63.2614L61.1118 41.8898H23.8511L22.3157 33.2808ZM40.5365 21.3123L39.4105 14.9081H28.7646L29.8906 21.3123H40.5365ZM63.978 0L69.4033 31.4961H59.6787L58.655 25.5118H53.3321L51.7966 16.4829H57.1196L56.403 12.5984H51.08L49.5446 3.56955H54.8675L54.2534 0H63.978Z" fill="#5826E8"/>
<path d="M0 0L13.8192 80H24.4651L10.6459 0H0Z" fill="#5826E8"/>
</svg>
