<svg width="611" height="383" viewBox="0 0 611 383" fill="none" xmlns="http://www.w3.org/2000/svg">
<path d="M497.279 134.201H353.526L329.902 0H473.656L481.195 42.7231H517.888L510.348 0H563.627L587.251 134.201H533.972L526.432 92.4829H489.74L497.279 134.201ZM428.921 43.7283H390.218L398.26 90.4724H436.963L428.921 43.7283Z" fill="#BD8856"/>
<path d="M540.003 148.274H415.35C382.679 148.274 360.563 174.914 366.595 207.584C372.124 240.255 403.79 266.894 436.461 266.894H561.114C593.785 266.894 615.901 240.255 609.87 207.584C603.838 174.914 572.675 148.274 540.003 148.274ZM544.024 225.176H438.974C429.424 225.176 419.874 217.134 418.366 207.584C416.858 198.034 423.392 189.992 432.942 189.992H537.993C547.543 189.992 557.093 198.034 558.601 207.584C560.109 217.134 553.574 225.176 544.024 225.176Z" fill="#BD8856"/>
<path d="M253.503 141.74H106.733L82.1045 3.01575H129.352L134.881 33.1732H187.155L181.626 3.01575H228.874L253.503 141.74ZM109.749 159.332H342.47L360.564 261.867H310.804L300.248 200.547H117.289L109.749 159.332ZM199.219 102.033L193.69 71.3727H141.415L146.944 102.033H199.219ZM314.322 0L340.962 150.787H293.211L288.185 122.138H262.048L254.508 78.9121H280.646L277.127 60.315H250.99L243.45 17.0892H269.588L266.572 0H314.322Z" fill="#BD8856"/>
<path d="M0.175781 0L68.0317 383H120.306L52.4498 0H0.175781Z" fill="#BD8856"/>
</svg>
