<svg width="125" height="80" viewBox="0 0 125 80" fill="none" xmlns="http://www.w3.org/2000/svg">
<path d="M101.238 28.0315H71.9621L67.151 0H96.4272L97.9627 8.92388H105.435L103.9 0H114.75L119.561 28.0315H108.711L107.175 19.3176H99.7028L101.238 28.0315ZM87.3168 9.13386H79.4347L81.0726 18.8976H88.9546L87.3168 9.13386Z" fill="#5826E8"/>
<path d="M109.939 30.9707H84.5529C77.8992 30.9707 73.3952 36.535 74.6236 43.3592C75.7496 50.1833 82.1985 55.7476 88.8522 55.7476H114.238C120.892 55.7476 125.396 50.1833 124.168 43.3592C122.939 36.535 116.593 30.9707 109.939 30.9707ZM110.758 47.0337H89.364C87.4191 47.0337 85.4742 45.3539 85.1671 43.3592C84.86 41.3644 86.1907 39.6846 88.1356 39.6846H109.53C111.475 39.6846 113.42 41.3644 113.727 43.3592C114.034 45.3539 112.703 47.0337 110.758 47.0337Z" fill="#5826E8"/>
<path d="M50.568 29.1864L50.9775 31.6011H69.5054L71.9622 45.9843H34.7016L35.0087 47.874H72.2693L73.4976 54.6982H25.8983L23.4415 40.21H60.7021L60.395 38.3202H23.1344L22.0084 31.4961H40.5363L40.1269 29.0814H21.5989L20.2682 21.2074H67.7653L69.096 29.0814H50.568V29.1864ZM67.3558 19.2126H19.8587L16.5831 0H64.0801L67.3558 19.2126ZM54.8673 7.76903H28.2526L28.8668 11.4436H55.4816L54.8673 7.76903Z" fill="#5826E8"/>
<path d="M0 0L13.7168 80H24.465L10.6459 0H0Z" fill="#5826E8"/>
</svg>
