<svg width="611" height="383" viewBox="0 0 611 383" fill="none" xmlns="http://www.w3.org/2000/svg">
<path d="M497.106 134.201H353.353L329.729 0H473.483L481.022 42.7231H517.714L510.175 0H563.454L587.078 134.201H533.799L526.259 92.4829H489.567L497.106 134.201ZM428.748 43.7283H390.045L398.087 90.4724H436.79L428.748 43.7283Z" fill="#BB62F8"/>
<path d="M539.83 148.274H415.176C382.505 148.274 360.389 174.914 366.421 207.584C371.95 240.255 403.616 266.894 436.287 266.894H560.94C593.611 266.894 615.727 240.255 609.696 207.584C603.664 174.914 572.501 148.274 539.83 148.274ZM543.851 225.176H438.8C429.25 225.176 419.7 217.134 418.192 207.584C416.685 198.034 423.219 189.992 432.769 189.992H537.819C547.369 189.992 556.919 198.034 558.427 207.584C559.935 217.134 553.401 225.176 543.851 225.176Z" fill="#BB62F8"/>
<path d="M248.302 139.73L250.313 151.29H341.29L353.353 220.15H170.394L171.902 229.197H354.861L360.893 261.867H127.167L115.104 192.505H298.063L296.555 183.458H113.596L108.067 150.787H199.044L197.034 139.227H106.057L99.5225 101.53H332.745L339.279 139.227H248.302V139.73ZM330.734 91.9803H97.5118L81.4277 0H314.65L330.734 91.9803ZM269.413 37.1942H138.728L141.744 54.7861H272.429L269.413 37.1942Z" fill="#BB62F8"/>
<path d="M0 0L67.3529 383H120.13L52.2739 0H0Z" fill="#BB62F8"/>
</svg>
